<?xml version="1.0" standalone="no"?>
<!DOCTYPE svg PUBLIC "-//W3C//DTD SVG 1.1//EN" "http://www.w3.org/Graphics/SVG/1.1/DTD/svg11.dtd" >
<svg xmlns="http://www.w3.org/2000/svg" xmlns:xlink="http://www.w3.org/1999/xlink" version="1.1">
<metadata>
Created by FontForge 20201107 at Sun Nov  4 22:41:02 2012
 By 
Copyright (c) 2012, Julia Petretta (julia.petretta@googlemail.com), with Reserved Font Name 'Text Me'
</metadata>
<defs>
<font id="TextMeOne-Regular" horiz-adv-x="600" >
  <font-face 
    font-family="Text Me One"
    font-weight="400"
    font-stretch="normal"
    units-per-em="1000"
    panose-1="0 0 0 0 0 0 0 0 0 0"
    ascent="800"
    descent="-200"
    x-height="500"
    cap-height="700"
    bbox="-76 -269 1078 952"
    underline-thickness="50"
    underline-position="-100"
    unicode-range="U+000D-FB02"
  />
<missing-glyph horiz-adv-x="300" 
 />
    <glyph glyph-name="fi" unicode="fi" horiz-adv-x="540" 
d="M158 500h106q8 0 13.5 -6t5.5 -14v-4q0 -8 -5.5 -14t-13.5 -6h-106l-1 -437q0 -19 -19 -19h-8q-20 0 -20 19l1 558q-1 74 38.5 114.5t108.5 40.5q45 0 45 -20v-8q0 -7 -5.5 -13t-13.5 -6h-25q-47 0 -74 -28t-27 -81v-76zM46 500h24q9 0 14.5 -6t5.5 -14v-4q0 -8 -5.5 -14
t-14.5 -6h-24q-9 0 -14.5 6t-5.5 14v4q0 8 5.5 14t14.5 6zM427 501h17q12 0 16 -5t4 -15v-461q0 -9 -6 -14.5t-14 -5.5h-17q-8 0 -14 5.5t-6 14.5v461q0 13 5.5 16.5t14.5 3.5zM434 732q36 0 47 -9.5t11 -39.5v-13q0 -34 -11 -43t-47 -9t-46 9t-10 43v13q0 32 10 40.5
t46 8.5zM452.5 693.5q-4.5 3.5 -18 3.5t-17.5 -3t-4 -14v-10q0 -11 4 -14t18 -3t18 3t4 14v10q0 10 -4.5 13.5z" />
    <glyph glyph-name="fl" unicode="fl" horiz-adv-x="630" 
d="M158 500h106q8 0 13.5 -6t5.5 -14v-4q0 -8 -5.5 -14t-13.5 -6h-106l-1 -437q0 -19 -19 -19h-8q-20 0 -20 19l1 558q-1 74 38.5 114.5t108.5 40.5q45 0 45 -20v-8q0 -7 -5.5 -13t-13.5 -6h-25q-47 0 -74 -28t-27 -81v-76zM46 500h24q9 0 14.5 -6t5.5 -14v-4q0 -8 -5.5 -14
t-14.5 -6h-24q-9 0 -14.5 6t-5.5 14v4q0 8 5.5 14t14.5 6zM426 730h8q19 0 19 -19v-557q0 -107 91 -107h16q8 0 13.5 -6t5.5 -13v-8q0 -20 -36 -20q-68 0 -103 39t-34 114v558q0 19 20 19z" />
    <glyph glyph-name=".notdef" horiz-adv-x="300" 
 />
    <glyph glyph-name=".null" horiz-adv-x="0" 
 />
    <glyph glyph-name="nonmarkingreturn" horiz-adv-x="333" 
 />
    <glyph glyph-name="CR" unicode="&#xd;" horiz-adv-x="300" 
 />
    <glyph glyph-name="space" unicode=" " horiz-adv-x="500" 
 />
    <glyph glyph-name="exclam" unicode="!" horiz-adv-x="214" 
d="M102 700h10q8 0 14 -5.5t6 -13.5v-479q0 -8 -6 -13.5t-14 -5.5h-10q-19 0 -19 19v479q0 19 19 19zM106 111q36 0 47 -9.5t11 -39.5v-13q0 -34 -11 -43t-47 -9t-46 9t-10 43v13q0 32 10 40.5t46 8.5zM124.5 72.5q-4.5 3.5 -18 3.5t-17.5 -3t-4 -14v-10q0 -11 4 -14t18 -3
t18 3t4 14v10q0 10 -4.5 13.5z" />
    <glyph glyph-name="quotedbl" unicode="&#x22;" horiz-adv-x="193" 
d="M132 730h11q19 0 19 -19v-140q0 -19 -19 -19h-11q-19 0 -19 19v140q0 19 19 19zM54 730h10q20 0 20 -19v-140q0 -19 -20 -19h-10q-19 0 -19 19v140q0 19 19 19z" />
    <glyph glyph-name="numbersign" unicode="#" horiz-adv-x="601" 
d="M116 501h128l71 186q7 13 18 13h11q11 0 17 -8t2 -18l-66 -173h128l72 186q7 13 18 13h11q10 0 16 -8t2 -18l-66 -173h78q19 0 19 -20v-9q0 -20 -19 -20h-97l-70 -184h103q8 0 13.5 -6t5.5 -14v-9q0 -8 -5.5 -14t-13.5 -6h-122l-78 -206q-6 -13 -20 -13h-11q-10 0 -14 8
t-1 18l73 193h-130l-78 -206q-6 -13 -19 -13h-10q-11 0 -16 8t-2 18l74 193h-87q-8 0 -13.5 6t-5.5 14v9q0 8 5.5 14t13.5 6h105l70 184h-110q-8 0 -13.5 6t-5.5 14v9q0 8 5.5 14t13.5 6zM337 268l70 184h-129l-70 -184h129z" />
    <glyph glyph-name="dollar" unicode="$" horiz-adv-x="561" 
d="M261 730h12q19 0 19 -19v-12q74 -7 123.5 -55.5t53.5 -130.5q0 -8 -5.5 -14t-13.5 -6h-9q-19 0 -20 23q-4 59 -39 93t-90 40v-277q7 -4 21 -10q78 -37 119 -80.5t41 -108t-46.5 -113.5t-134.5 -59v-103q0 -8 -5.5 -14t-13.5 -6h-12q-8 0 -13.5 6t-5.5 14v101
q-80 3 -140 50.5t-63 146.5q0 8 5.5 14.5t13.5 6.5h9q20 0 20 -16q0 -42 15 -73.5t40 -47.5q47 -31 100 -33v292q-93 47 -134 89.5t-41 107t46 110.5t129 53v12q0 19 19 19zM292 314v-265q66 8 99 41t33 82q0 54 -42 88q-32 25 -61 39t-29 15zM150.5 611
q-31.5 -32 -31.5 -75.5t31.5 -76t91.5 -63.5v253q-60 -6 -91.5 -38z" />
    <glyph glyph-name="percent" unicode="%" horiz-adv-x="608" 
d="M371 732h12q11 0 16 -6.5t3 -16.5l-131 -713q-3 -16 -19 -16h-10q-10 0 -15.5 6.5t-4.5 16.5l129 713q3 16 20 16zM355 208q0 103 101.5 103t101.5 -103v-105q0 -103 -101.5 -103t-101.5 103v105zM510 214q0 49 -53.5 49t-53.5 -49v-117q0 -49 53.5 -49t53.5 49v117z
M50 597q0 103 101.5 103t101.5 -103v-105q0 -103 -101.5 -103t-101.5 103v105zM205 603q0 49 -53.5 49t-53.5 -49v-117q0 -49 53.5 -49t53.5 49v117z" />
    <glyph glyph-name="ampersand" unicode="&#x26;" horiz-adv-x="561" 
d="M128.5 657.5q39.5 42.5 110 42.5t112.5 -41.5t42 -101.5q0 -100 -131 -183h-6l-20 30l-1 4l1 2q48 29 70 51q40 41 40 89t-28 75.5t-75 27.5t-75.5 -26t-28.5 -75t78 -157l271 -380q10 -15 -5 -15l-47 1q-8 0 -13 8.5t-10.5 17.5t-52 74t-104 144.5t-81.5 114.5
q-86 125 -86 190t39.5 107.5zM97 216v-48q0 -125 148 -125q54 0 98 17q8 3 12 -2l22 -27q5 -6 -1 -8q-58 -26 -131 -26q-195 0 -195 172v39q0 26 1.5 34t3 19t4 17t5.5 14q5 11 21 27q13 11 62 39q8 4 11 0l19 -28q3 -2 0 -4q-57 -29 -69 -54q-11 -23 -11 -56zM332 369h163
q12 0 12 -20v-9q0 -19 -12 -19h-163q-12 0 -12 19v9q0 20 12 20z" />
    <glyph glyph-name="quotesingle" unicode="'" horiz-adv-x="140" 
d="M64 730h10q19 0 19 -19v-140q0 -19 -19 -19h-10q-8 0 -14 5.5t-6 13.5v140q0 8 6 13.5t14 5.5z" />
    <glyph glyph-name="parenleft" unicode="(" horiz-adv-x="327" 
d="M293 690q8 0 13.5 -6t5.5 -14v-9q0 -8 -5.5 -14t-13.5 -6q-73 0 -131 -51q-32 -29 -51.5 -92.5t-19.5 -154.5q0 -296 204 -296q19 0 19 -19v-9q0 -20 -19 -20q-252 0 -252 345.5t250 345.5z" />
    <glyph glyph-name="parenright" unicode=")" horiz-adv-x="362" 
d="M64 690q250 0 250 -345.5t-252 -345.5q-19 0 -19 20v9q0 19 19 19q204 0 204 296q0 203 -96 267q-46 31 -106 31q-8 0 -13.5 6t-5.5 14v9q0 8 5.5 14t13.5 6z" />
    <glyph glyph-name="asterisk" unicode="*" horiz-adv-x="354" 
d="M107 510q-9 -7 -16 -7t-18 15v-1q-12 12 0 28l38 36h-52q-8 0 -13.5 6t-5.5 14v9q0 19 19 19h49l-36 36q-12 12 0 28l7 6q12 12 28 0l37 -39v51q0 8 6 13.5t14 5.5h9q8 0 14 -5.5t6 -13.5v-51l37 37q8 7 16 7q6 0 18 -13q12 -16 0 -28l-35 -34h49q19 0 19 -19v-9
q0 -8 -5.5 -14t-13.5 -6h-56l39 -41q7 -8 7 -16q0 -6 -13 -18q-16 -12 -28 0l-34 35v-46q0 -8 -6 -13.5t-14 -5.5h-9q-8 0 -14 5.5t-6 13.5v52zM183 599v8l-8 9q-1 0 -1 1h-11l-8 -8v-9l9 -10h9z" />
    <glyph glyph-name="plus" unicode="+" horiz-adv-x="479" 
d="M45 366h171v172q0 19 19 19h8q19 -2 21 -19v-172h171q19 0 19 -19v-9q0 -8 -5.5 -14t-13.5 -6h-171v-171q-2 -20 -20 -20h-10q-18 2 -18 20v171h-171q-9 0 -14.5 6t-5.5 14v9q0 19 20 19z" />
    <glyph glyph-name="comma" unicode="," horiz-adv-x="109" 
d="M78 139h13q19 0 16 -19q-17 -76 -57 -243q-3 -13 -19 -13h-12q-20 0 -17 19l57 243q4 13 19 13z" />
    <glyph glyph-name="hyphen" unicode="-" horiz-adv-x="351" 
d="M51 346h249q20 0 20 -19v-10q0 -19 -20 -19h-249q-20 0 -20 19v10q0 19 20 19z" />
    <glyph glyph-name="period" unicode="." horiz-adv-x="200" 
d="M97 111q36 0 47 -9.5t11 -39.5v-13q0 -34 -11 -43t-47 -9t-46 9t-10 43v13q0 32 10 40.5t46 8.5zM115.5 72.5q-4.5 3.5 -18 3.5t-17.5 -3t-4 -14v-10q0 -11 4 -14t18 -3t18 3t4 14v10q0 10 -4.5 13.5z" />
    <glyph glyph-name="slash" unicode="/" horiz-adv-x="303" 
d="M283 699q17 0 17 -17q0 -4 -2 -9l-261 -660q-8 -13 -15 -13h-12q-11 0 -16 6.5t-5 11t2 8.5l260 660q7 13 19 13h13z" />
    <glyph glyph-name="zero" unicode="0" horiz-adv-x="522" 
d="M245 700h12q82 0 138 -46t56 -144v-309q0 -100 -54 -150.5t-143 -52.5h-6q-90 2 -144 52.5t-54 150.5v309q0 66 29 110q52 80 166 80zM259 652h-16q-59 0 -101 -32.5t-42 -112.5v-305q0 -156 145 -156h12q145 0 145 156v305q0 80 -42 112.5t-101 32.5z" />
    <glyph glyph-name="one" unicode="1" horiz-adv-x="383" 
d="M274 657v-636q0 -16 -1 -18.5t-10 -2.5h-29q-7 0 -8.5 3.5t-1.5 9.5v628l-172 -136q-13 -10 -22 2l-9 11q-4 5 -4 11t9 13l172 140q23 18 46 18h2q28 -1 28 -43z" />
    <glyph glyph-name="two" unicode="2" horiz-adv-x="500" 
d="M245 700q87 0 134 -45.5t47 -120.5q0 -42 -26 -96.5t-51 -89.5q-58 -83 -156 -196l-30 -36q-25 -30 -38.5 -48t-16.5 -21q2 1 6 1h307q20 0 20 -19v-9q0 -20 -20 -20h-308q-16 0 -25.5 2t-19 13.5t-9.5 32t43 74.5l42 48q9 11 20 24q26 30 47 57l27 32q6 8 24.5 31.5
t25.5 32.5t22.5 30t22 32.5t17 30t15.5 31.5q12 31 12 58q0 63 -39 93t-93 30q-96 0 -133 -90q-6 -12 -18 -12h-9q-20 0 -20 18q0 5 1 7q20 59 68.5 92t110.5 33z" />
    <glyph glyph-name="three" unicode="3" horiz-adv-x="535" 
d="M54 154q-2 9 -2 14.5t10 5.5l30 2h4q3 0 5 -11q31 -116 153 -116q67 0 110 35t43 103.5t-43.5 111t-130.5 42.5h-59q-10 0 -11.5 2t-1.5 9v14v8.5t1 9.5q1 5 13 5h56q79 0 121.5 33.5t42.5 90.5t-38.5 98t-106.5 41q-44 0 -79.5 -21t-43.5 -65q-1 -7 -8 -7h-33
q-9 0 -6 17q9 53 56.5 88.5t113.5 35.5q94 0 143.5 -53.5t49.5 -131.5q0 -49 -25.5 -89.5t-77.5 -60.5q61 -20 89 -66t28 -101t-19 -94t-50 -61q-59 -43 -138.5 -43t-129.5 41t-66 113z" />
    <glyph glyph-name="four" unicode="4" horiz-adv-x="555" 
d="M343 700q39 0 39 -43v-385h114q18 0 18 -19v-9q0 -20 -18 -20h-114v-204q0 -20 -20 -20h-9q-19 0 -19 20v204h-258q-33 0 -41 22q-2 6 -2 15t9 21l260 390q19 28 41 28zM334 272v363q-33 -49 -114 -174t-126 -189h240z" />
    <glyph glyph-name="five" unicode="5" horiz-adv-x="568" 
d="M68 131q0 18 17 18h13q12 0 18 -12q20 -49 61 -70.5t87 -21.5q73 0 119.5 42.5t46.5 126.5v13q0 93 -16 125q-10 19 -25 39q-30 40 -105 40q-26 0 -48 -6.5t-29 -10.5t-19.5 -12.5t-22.5 -16.5l-15 -12q-14 -10 -27 -10q-36 0 -36 44v254q0 36 31 39h19h303q8 0 14 -5.5
t6 -13.5v-10q0 -8 -6 -13.5t-14 -5.5h-304v-235q14 17 57.5 40t87 23t75.5 -10.5t52 -25t34.5 -40t21 -44.5t10.5 -49.5t4 -44.5v-51q0 -111 -61 -165t-153 -54q-61 0 -115.5 32t-79.5 95q-1 4 -1 8z" />
    <glyph glyph-name="six" unicode="6" horiz-adv-x="584" 
d="M142.5 648q55.5 52 137.5 52t132.5 -33.5t65.5 -95.5q1 -9 -4 -15.5t-14 -7.5l-11 -1q-15 0 -19 15q-11 43 -49 66.5t-99.5 23.5t-104 -39.5t-42.5 -114.5v-120q29 27 71.5 44t84.5 17q84 0 138 -48t54 -130v-79q0 -79 -55 -132t-141 -53h-8q-77 0 -134.5 52.5
t-57.5 137.5v312q0 97 55.5 149zM291 391q-83 0 -156 -71v-130q0 -67 45 -105.5t98 -38.5h9q62 0 105 38.5t43 97.5v78q0 60 -42 95.5t-102 35.5z" />
    <glyph glyph-name="seven" unicode="7" horiz-adv-x="454" 
d="M56 700h335q36 0 36 -32q-1 -18 -11 -37l-293 -620q-5 -11 -18 -11h-12q-20 0 -20 18q0 4 2 10l297 623h-316q-8 0 -14 5.5t-6 13.5v11q0 8 6 13.5t14 5.5z" />
    <glyph glyph-name="eight" unicode="8" horiz-adv-x="563" 
d="M462 518q0 -50 -21.5 -93t-69.5 -64q55 -17 82.5 -66t27.5 -119t-47.5 -121.5t-164.5 -54.5q-209 5 -209 182q0 65 26 113.5t80 65.5q-87 38 -87 157q0 90 51 135t139 47q89 -2 141 -47t52 -135zM269 333q-91 0 -125.5 -41.5t-34.5 -110t43.5 -101t117 -32.5t118 32.5
t44.5 100.5q0 152 -163 152zM165.5 616.5q-38.5 -33.5 -38.5 -96t34 -101t108.5 -38.5t109.5 37t35 100.5t-39.5 97.5t-105.5 36q-65 -2 -103.5 -35.5z" />
    <glyph glyph-name="nine" unicode="9" horiz-adv-x="542" 
d="M264 700h7q78 0 136 -52t58 -138v-322q0 -95 -55 -141.5t-144.5 -46.5t-143 44t-53.5 125v12q0 9 6 14.5t14 5.5h9q8 0 14 -5.5t6 -14.5v-10q0 -59 40.5 -90.5t108 -31.5t109 33.5t41.5 106.5v126q-59 -57 -146 -57t-144.5 47t-57.5 128v82q0 80 55 132.5t140 52.5z
M272 652h-8q-62 0 -104.5 -38.5t-42.5 -98.5v-81q0 -59 45 -93.5t111.5 -34.5t143.5 68v133q0 68 -45.5 106.5t-99.5 38.5z" />
    <glyph glyph-name="colon" unicode=":" horiz-adv-x="199" 
d="M96 441q36 0 47 -9.5t11 -39.5v-13q0 -34 -11 -43t-47 -9t-46 9t-10 43v13q0 32 10 40.5t46 8.5zM96 111q36 0 47 -9.5t11 -39.5v-13q0 -34 -11 -43t-47 -9t-46 9t-10 43v13q0 32 10 40.5t46 8.5zM114.5 72.5q-4.5 3.5 -18 3.5t-17.5 -3t-4 -14v-10q0 -11 4 -14t18 -3
t18 3t4 14v10q0 10 -4.5 13.5zM114.5 402.5q-4.5 3.5 -18 3.5t-17.5 -3t-4 -14v-10q0 -11 4 -14t18 -3t18 3t4 14v10q0 10 -4.5 13.5z" />
    <glyph glyph-name="semicolon" unicode=";" horiz-adv-x="171" 
d="M78 139h13q19 0 16 -19q-17 -76 -57 -243q-3 -13 -19 -13h-12q-20 0 -17 19l57 243q4 13 19 13zM101 381q36 0 47 -9.5t11 -39.5v-13q0 -34 -11 -43t-47 -9t-46 9t-10 43v13q0 32 10 40.5t46 8.5zM119.5 342.5q-4.5 3.5 -18 3.5t-17.5 -3t-4 -14v-10q0 -11 4 -14t18 -3
t18 3t4 14v10q0 10 -4.5 13.5z" />
    <glyph glyph-name="less" unicode="&#x3c;" horiz-adv-x="572" 
d="M480 504q5 3 11 3t11 -3q14 -4 14 -22.5t-14 -23.5l-395 -138l397 -132q14 -5 14 -22q0 -5 -2 -11q-7 -16 -17.5 -16t-18.5 3l-410 141q-20 8 -20 36.5t21 36.5z" />
    <glyph glyph-name="equal" unicode="=" horiz-adv-x="579" 
d="M95 446h390q19 0 19 -19v-9q0 -20 -19 -20h-390q-20 0 -20 20v9q0 19 20 19zM95 322h390q19 0 19 -19v-9q0 -8 -5.5 -14t-13.5 -6h-390q-9 0 -14.5 6t-5.5 14v9q0 19 20 19z" />
    <glyph glyph-name="greater" unicode="&#x3e;" horiz-adv-x="568" 
d="M497 356q21 -8 21 -36.5t-20 -36.5l-410 -141q-8 -3 -18.5 -3t-15 11t-4.5 16q0 17 14 22l397 132l-395 138q-14 5 -14 23.5t14 22.5q5 3 11 3t11 -3z" />
    <glyph glyph-name="question" unicode="?" horiz-adv-x="442" 
d="M207 686q90 0 134 -52.5t44 -121.5t-45 -117t-120 -58q-1 0 -2 1v-143q0 -19 -19 -19h-9q-20 0 -20 19v148q0 23 10 31t36 10q52 5 86.5 39t34.5 88t-33.5 90.5t-96.5 36.5q-90 0 -121 -72q-6 -12 -18 -12h-9q-20 0 -20 16q0 4 1 9q20 55 65.5 81t101.5 26zM191 111
q36 0 47 -9.5t11 -39.5v-13q0 -34 -11 -43t-47 -9t-46 9t-10 43v13q0 32 10 40.5t46 8.5zM209.5 72.5q-4.5 3.5 -18 3.5t-17.5 -3t-4 -14v-10q0 -11 4 -14t18 -3t18 3t4 14v10q0 10 -4.5 13.5z" />
    <glyph glyph-name="at" unicode="@" horiz-adv-x="481" 
d="M82 479.5q62 50.5 153.5 50.5t154.5 -48t63 -141v-168q0 -37 -23 -61.5t-54.5 -24.5t-56.5 22q-35 -29 -85.5 -29t-81.5 29t-31 84v130q0 55 32.5 84t85 29t85 -29.5t32.5 -83.5v-160q0 -10 7 -17.5t17.5 -7.5t18 9.5t7.5 19.5v153q0 84 -48 123t-119.5 39t-121.5 -37.5
t-50 -102.5v-172q0 -63 51 -102q52 -41 116 -41t125 30q14 -34 16 -46q-64 -32 -142 -32q-92 0 -152.5 52.5t-60.5 137.5v174q0 86 62 136.5zM307 323q0 64 -68.5 64t-68.5 -64v-130q0 -65 69 -65q45 0 68 35v160z" />
    <glyph glyph-name="A" unicode="A" horiz-adv-x="588" 
d="M246 674q9 27 38.5 27t39.5 -28l230 -646q1 -3 1 -7q0 -20 -20 -20h-12q-13 0 -19 13l-218 621l-219 -621q-6 -13 -19 -13h-12q-20 0 -20 20q0 4 1 7zM199 308h173q8 0 14 -5.5t6 -14.5v-9q0 -9 -6 -14.5t-14 -5.5h-173q-19 0 -19 20v9q0 20 19 20z" />
    <glyph glyph-name="B" unicode="B" horiz-adv-x="508" 
d="M94 700h108q120 0 175 -33q77 -47 77 -150q-2 -48 -27 -91t-81 -63q50 -11 82.5 -41.5t43.5 -61.5t11 -74t-20.5 -87t-59.5 -67q-57 -32 -162 -32h-145q-26 0 -35.5 9.5t-9.5 36.5v610q0 26 8.5 35t34.5 9zM201 650h-100v-601h156q176 0 176 143q0 59 -48.5 102.5
t-136.5 43.5h-67q-11 0 -16 0.5t-11.5 6t-6.5 19t10.5 17.5t29.5 4h63q83 0 118.5 41t35.5 92q0 53 -34 88q-41 44 -169 44z" />
    <glyph glyph-name="C" unicode="C" horiz-adv-x="564" 
d="M228.5 701.5q27.5 4.5 54 4.5t53.5 -4.5t59.5 -19t58.5 -37t46 -62t25 -91.5q0 -22 -20 -22h-9q-18 0 -20 18q-5 42 -21 74t-37 49t-48 28q-40 17 -74.5 17t-57 -4t-50.5 -17t-49 -34.5t-35.5 -60.5t-14.5 -90v-196q0 -51 16 -90t38.5 -60.5t52.5 -34.5q48 -21 90 -21
t71.5 7.5t58.5 26.5q62 39 62 145q0 17 5.5 22t14.5 5h8q20 0 20 -20q0 -61 -19.5 -107t-45.5 -69.5t-61 -37.5q-54 -21 -94.5 -21t-70 5t-66 22t-64 43t-46.5 73.5t-19 108.5v203q0 63 18.5 111t45 73.5t62 42t63 21z" />
    <glyph glyph-name="D" unicode="D" horiz-adv-x="576" 
d="M81 700h162q148 0 197 -72q25 -36 34 -79.5t9 -109.5v-192q0 -128 -53.5 -187.5t-180.5 -59.5h-167q-40 0 -40 41v619q0 22 8.5 31t30.5 9zM243 651h-151v-602h157q95 0 140 45t45 147v201q0 110 -40 159.5t-151 49.5z" />
    <glyph glyph-name="E" unicode="E" horiz-adv-x="500" 
d="M102 700h349q8 0 14 -6t6 -14v-9q0 -9 -6 -14.5t-14 -5.5h-339v-602h339q8 0 14 -5.5t6 -14.5v-9q0 -8 -6 -14t-14 -6h-350q-24 0 -31.5 10.5t-7.5 29.5v621q0 20 9 29.5t31 9.5zM172 388h214q9 0 14.5 -6t5.5 -14v-9q0 -20 -20 -20h-214q-20 0 -20 20v9q0 8 5.5 14
t14.5 6z" />
    <glyph glyph-name="F" unicode="F" horiz-adv-x="484" 
d="M99 700h333q9 0 14.5 -6t5.5 -14v-9q0 -20 -20 -20h-321v-631q0 -8 -5.5 -14t-14.5 -6h-10q-9 0 -14.5 6t-5.5 14v640q0 19 7 29.5t31 10.5zM151 388h225q8 0 14 -6t6 -14v-9q0 -9 -6 -14.5t-14 -5.5h-225q-19 0 -19 20v9q0 8 5.5 14t13.5 6z" />
    <glyph glyph-name="G" unicode="G" horiz-adv-x="581" 
d="M228.5 701.5q27.5 4.5 54 4.5t53.5 -4.5t59.5 -19t58.5 -37t46 -62t25 -91.5q0 -22 -20 -22h-9q-18 0 -20 18q-5 42 -21 74t-37 49t-48 28q-40 17 -74.5 17t-57 -4t-50.5 -17t-49 -34.5t-35.5 -60.5t-14.5 -90v-196q0 -51 15 -90t36 -60.5t49.5 -34.5t50.5 -17t44 -4
t44 3.5t50 16t49 33t35.5 57.5t14.5 86v58h-165q-20 0 -20 20v9q0 8 5.5 14t14.5 6h174q40 0 40 -43v-65q0 -61 -18.5 -107.5t-44.5 -71.5t-61 -40q-57 -25 -118 -25q-64 0 -109.5 22t-72 48t-44.5 73.5t-18 108.5v203q0 63 18.5 111t45 73.5t62 42t63 21z" />
    <glyph glyph-name="H" unicode="H" horiz-adv-x="547" 
d="M451 700h9q9 0 14.5 -6t5.5 -14v-660q0 -8 -5.5 -14t-14.5 -6h-9q-8 0 -14 6t-6 14v660q0 8 6 14t14 6zM66 700h9q9 0 14.5 -6t5.5 -14v-660q0 -8 -5.5 -14t-14.5 -6h-9q-8 0 -14 6t-6 14v660q0 8 6 14t14 6zM135 393h258q8 0 14 -6t6 -14v-10q0 -8 -6 -14t-14 -6h-258
q-8 0 -14 6t-6 14v10q0 8 6 14t14 6z" />
    <glyph glyph-name="I" unicode="I" horiz-adv-x="200" 
d="M94 700h9q8 0 14 -6t6 -14v-660q0 -8 -6 -14t-14 -6h-9q-9 0 -14.5 6t-5.5 14v660q0 8 5.5 14t14.5 6z" />
    <glyph glyph-name="J" unicode="J" horiz-adv-x="487" 
d="M74 700h313q40 0 40 -37v-445q0 -100 -51.5 -159t-142.5 -59q-66 0 -119.5 29.5t-78.5 92.5q-2 4 -2 7q0 15 14 20q12 4 19.5 4t12.5 -12q12 -31 34.5 -52t48.5 -29q41 -11 71 -11q144 0 144 168v433h-303q-19 0 -19 20v10q0 8 5.5 14t13.5 6z" />
    <glyph glyph-name="K" unicode="K" horiz-adv-x="529" 
d="M464 700h11q9 0 15 -6q9 -10 2 -23l-175 -314l188 -328q3 -6 3 -11q0 -18 -20 -18h-11q-11 0 -15 6l-172 301l-152 -280q-18 -30 -40 -30q-38 0 -38 40v643q0 8 5.5 14t14.5 6h10q9 0 14.5 -6t5.5 -14v-600l198 362l142 252q4 6 14 6z" />
    <glyph glyph-name="L" unicode="L" horiz-adv-x="499" 
d="M71 700h10q8 0 14 -6t6 -14v-631h334q19 0 19 -20v-9q0 -8 -5.5 -14t-13.5 -6h-343q-41 0 -41 43v637q0 8 6 14t14 6z" />
    <glyph glyph-name="M" unicode="M" horiz-adv-x="650" 
d="M538 703q16 0 28 -10.5t12 -32.5v-640q0 -8 -5.5 -14t-14.5 -6h-9q-9 0 -14.5 6t-5.5 14v595l-174 -430q-11 -26 -36 -29q-29 0 -41 28l-184 435v-599q0 -8 -6 -14t-14 -6h-10q-8 0 -13.5 6t-5.5 14v640q0 43 39 43q27 0 40 -30l192 -453l182 453q14 30 40 30z" />
    <glyph glyph-name="N" unicode="N" 
d="M89 702q27 0 42 -24q193 -320 355 -609v611q0 8 5.5 14t14.5 6h10q9 0 14.5 -6t5.5 -14v-643q0 -20 -11.5 -29.5t-32.5 -9.5t-35 22l-355 609v-609q0 -8 -6 -14t-14 -6h-11q-8 0 -13.5 6t-5.5 14v641q0 41 37 41z" />
    <glyph glyph-name="O" unicode="O" horiz-adv-x="606" 
d="M238 696q27 4 55.5 4t56.5 -4.5t63.5 -20.5t61.5 -41.5t44 -72t18 -107.5v-203q0 -63 -18.5 -111t-45 -74t-61.5 -42q-56 -25 -118 -25q-65 0 -110.5 22t-71.5 48t-44 73.5t-18 108.5v203q0 63 18.5 110t44.5 72t62 40.5t63 19.5zM337.5 647.5q-21.5 3.5 -44 3.5
t-44.5 -3.5t-50.5 -16t-49.5 -33t-35.5 -59t-14.5 -89.5v-196q0 -51 14.5 -90t36 -60.5t49.5 -34.5t50.5 -17t44.5 -4t44.5 4t50.5 17t49 34.5t35.5 60.5t14.5 90v196q0 51 -15 89.5t-36 59t-49.5 33t-50 16z" />
    <glyph glyph-name="P" unicode="P" horiz-adv-x="498" 
d="M98 700h155q70 0 129 -38q31 -20 50 -58t19 -90q0 -79 -46 -132.5t-160 -53.5h-66q-9 0 -14.5 6t-5.5 14v9q0 20 20 20h54q109 0 141 46q27 38 27 92q0 71 -45.5 103t-107.5 32h-144v-630q0 -8 -6 -14t-14 -6h-10q-8 0 -14 6t-6 14v636q0 26 9 35t35 9z" />
    <glyph glyph-name="Q" unicode="Q" horiz-adv-x="577" 
d="M294 706q28 0 56 -5t63 -22t61.5 -43t44.5 -73.5t18 -108.5v-203q0 -99 -46 -164l54 -62q6 -8 6 -14q0 -11 -15 -11h-26q-8 0 -15 7l-38 44q-65 -52 -163 -52q-65 0 -110.5 22t-71.5 48t-44 73.5t-18 108.5v203q0 63 18.5 111t44.5 74t61.5 42t63.5 20.5t56 4.5zM338 652
q-22 4 -44.5 4t-45 -4t-50.5 -17t-49 -34.5t-35.5 -60.5t-14.5 -90v-196q0 -51 14.5 -90t36 -60.5t49.5 -34.5q45 -21 95 -21q79 0 129 42l-112 133q-11 12 -11 20q0 10 22 10h16q9 0 16 -7l102 -119q32 51 32 127v196q0 51 -15 90t-36 60.5t-49 34.5t-50 17z" />
    <glyph glyph-name="R" unicode="R" horiz-adv-x="489" 
d="M97 700h137q242 0 242 -190q0 -74 -47 -131.5t-148 -57.5h-11l216 -284q12 -18 12 -22q0 -15 -14 -15h-20q-13 0 -19 8l-231 304q-11 16 -11 26q0 32 35 32h44q42 0 72 14t44 36q28 43 28 89q0 141 -193 141h-128v-630q0 -8 -5.5 -14t-14.5 -6h-10q-9 0 -14.5 6t-5.5 14
v633q0 27 8.5 37t33.5 10z" />
    <glyph glyph-name="S" unicode="S" horiz-adv-x="557" 
d="M138 654q53 48 144.5 48t154 -48.5t66.5 -144.5q0 -8 -6 -14.5t-14 -6.5h-10q-7 0 -13 5.5t-7 13.5q-3 76 -51 110.5t-115 34.5q-72 0 -112 -33t-40 -81.5t28 -77.5q39 -39 145 -80q126 -50 168 -100q32 -38 32 -109t-57.5 -121.5t-163.5 -50.5q-79 0 -149 43
q-37 23 -60.5 64.5t-25.5 95.5q0 21 20 21h9q18 0 20 -19q2 -44 22 -76.5t50 -48.5q58 -31 127.5 -31t114 36.5t44.5 91.5q0 56 -36 86q-29 24 -63 41q-44 21 -138 59q-72 32 -104.5 73.5t-32.5 106t53 112.5z" />
    <glyph glyph-name="T" unicode="T" horiz-adv-x="500" 
d="M241 624h10q20 0 20 -19v-585q0 -8 -5.5 -14t-14.5 -6h-10q-9 0 -14.5 6t-5.5 14v585q0 19 20 19zM25 700h444q9 0 14.5 -6t5.5 -14v-11q0 -18 -20 -18h-444q-20 0 -20 18v11q0 8 6 14t14 6z" />
    <glyph glyph-name="U" unicode="U" horiz-adv-x="562" 
d="M480 700h10q8 0 14 -6t6 -14v-429q0 -72 -24 -124.5t-62 -78.5q-70 -49 -143 -49h-12q-73 0 -145 49q-38 26 -61.5 78.5t-23.5 124.5v429q0 8 5.5 14t14.5 6h10q9 0 14.5 -6t5.5 -14v-429q0 -59 19 -101.5t50 -63.5q54 -36 113 -38h9q57 2 112 39q30 20 49 62.5t19 101.5
v429q0 8 5.5 14t14.5 6z" />
    <glyph glyph-name="V" unicode="V" horiz-adv-x="551" 
d="M503 700h12q20 0 20 -20q0 -4 -1 -7l-228 -647q-9 -27 -39 -27t-40 28l-230 646q-1 3 -1 7q0 20 20 20h12q12 0 19 -13l219 -624l218 624q6 13 19 13z" />
    <glyph glyph-name="W" unicode="W" horiz-adv-x="777" 
d="M730 700h11q11 0 15.5 -6.5t4.5 -11t-1 -7.5l-179 -643q-10 -33 -41.5 -33t-40.5 33l-123 440l-123 -442q-11 -31 -40.5 -31t-40.5 31l-189 644q-1 4 -1 9t4.5 11t15.5 6h10q12 0 19 -14l182 -618l129 461q8 28 35.5 28t33.5 -29q21 -76 64.5 -229.5t64.5 -229.5l171 616
q2 5 7.5 10t11.5 5z" />
    <glyph glyph-name="X" unicode="X" horiz-adv-x="489" 
d="M418 700h11q12 0 17.5 -10t-0.5 -20v1l-169 -308q-1 -1 -3.5 -5t-4.5 -6l6 -8l181 -315q3 -5 3 -10t-4 -12t-16 -7h-12q-11 0 -15 6l-173 300q-10 -17 -79.5 -128.5t-104.5 -168.5q-7 -9 -17 -9h-12q-13 0 -18 10t1 21l196 313v-1q4 8 7 11q-4 4 -5 7l-207 308
q-3 5 -3 10t4 13t16 8h11q10 0 17 -9l196 -291l161 294q4 6 16 6z" />
    <glyph glyph-name="Y" unicode="Y" horiz-adv-x="436" 
d="M391 700h11q12 0 16 -7.5t4 -12.5t-3 -10v1l-169 -308q-8 -12 -11 -15v-328q0 -8 -6 -14t-14 -6h-10q-8 0 -14 6t-6 14v329q-5 5 -9 12l-182 309q-3 5 -3 10t4 12.5t16 7.5h12q10 0 17 -9l170 -292l161 295q4 6 16 6z" />
    <glyph glyph-name="Z" unicode="Z" horiz-adv-x="552" 
d="M43 37q0 13 16 37v1l364 576h-372q-8 0 -14 5.5t-6 14.5v9q0 8 6 14t14 6h390q42 0 42 -35q0 -18 -14 -36v1l-3 -3l1 -2l-366 -576h393q8 0 14 -5.5t6 -14.5v-9q0 -8 -6 -14t-14 -6h-411q-40 0 -40 37z" />
    <glyph glyph-name="bracketleft" unicode="[" horiz-adv-x="400" 
d="M146 699h140q19 0 19 -19v-10q0 -19 -19 -19h-129v-603h129q19 0 19 -19v-9q0 -20 -19 -20h-139q-38 0 -38 38l-1 621q0 40 38 40z" />
    <glyph glyph-name="backslash" unicode="\" horiz-adv-x="307" 
d="M15 684h11q12 0 19 -13l249 -645q1 -4 1 -8.5t-4 -11t-15 -6.5h-10q-13 0 -19 13l-251 645q-1 4 -1 8.5t4.5 11t15.5 6.5z" />
    <glyph glyph-name="bracketright" unicode="]" horiz-adv-x="403" 
d="M127 699h140q38 0 38 -40v-620q0 -39 -39 -39h-139q-19 0 -19 20v9q0 19 19 19h129v603h-129q-19 0 -19 19v10q0 19 19 19z" />
    <glyph glyph-name="asciicircum" unicode="^" horiz-adv-x="405" 
d="M165 711q7 21 37 21t37 -21l150 -423q4 -10 4 -16q0 -16 -19 -16h-12q-9 0 -15 16l-145 395l-144 -395q-5 -16 -15 -16h-12q-19 0 -19 16q0 6 4 16z" />
    <glyph glyph-name="underscore" unicode="_" horiz-adv-x="459" 
d="M55 39h343q8 0 14 -5.5t6 -13.5v-10q0 -8 -6 -13.5t-14 -5.5h-343q-8 0 -14 5.5t-6 13.5v10q0 8 6 13.5t14 5.5z" />
    <glyph glyph-name="grave" unicode="`" horiz-adv-x="368" 
d="M98 712q0 20 27 20q14 0 18.5 -4.5t11.5 -13.5l107 -136q5 -6 5 -11.5t-5 -13t-20.5 -7.5t-29.5 17l-107 133q-7 8 -7 16z" />
    <glyph glyph-name="a" unicode="a" horiz-adv-x="504" 
d="M121 459q48 43 125 43t124 -43.5t47 -121.5v-220q0 -39 6.5 -53.5t25.5 -19.5l11 -3q15 -3 15 -13v-11q0 -17 -20 -17q-49 0 -67 29t-18 89v219q0 57 -35 87.5t-89 30.5t-90 -30.5t-36 -87.5v-171q0 -59 29.5 -89t85 -30t91.5 45q7 9 19.5 9t17.5 -15q3 -12 -3 -21
q-43 -65 -123.5 -65t-122 43t-41.5 122v172q0 79 48 122z" />
    <glyph glyph-name="b" unicode="b" horiz-adv-x="461" 
d="M69 730h8q8 0 14 -5.5t6 -13.5v-259q52 50 130 50t122.5 -43.5t44.5 -121.5v-174q0 -79 -48 -122t-125 -43t-124.5 43.5t-47.5 121.5v548q0 8 6 13.5t14 5.5zM229 454q-86 0 -132 -61v-229q0 -57 35 -87.5t89 -30.5t89.5 30t35.5 88v171q0 58 -32 88.5t-85 30.5z" />
    <glyph glyph-name="c" unicode="c" horiz-adv-x="505" 
d="M118 459q48 43 125 43t124 -43.5t47 -121.5q0 -19 -20 -19h-8q-19 0 -19 19q0 57 -35 87t-89 30t-89.5 -30.5t-35.5 -87.5v-172q0 -57 35.5 -87.5t89.5 -30.5t88.5 29.5t35.5 84.5q0 8 5.5 14t13.5 6h8q9 0 14.5 -6t5.5 -14q-2 -76 -49 -119t-122.5 -43t-124 43.5
t-48.5 121.5v174q0 79 48 122z" />
    <glyph glyph-name="d" unicode="d" horiz-adv-x="510" 
d="M388 732h12q18 0 18 -19v-550q0 -78 -47.5 -121.5t-124.5 -43.5t-125 43t-48 122v174q0 77 48 120t125 43q32 0 68.5 -12t55.5 -27v252q0 19 18 19zM370 406q-58 46 -118 46t-95.5 -30t-35.5 -87v-171q0 -58 35.5 -88t89.5 -30t89 30.5t35 87.5v242z" />
    <glyph glyph-name="e" unicode="e" horiz-adv-x="490" 
d="M118 459q48 43 125 43t124 -43.5t47 -121.5v-60q0 -43 -41 -43h-216q-9 0 -14.5 6t-5.5 14v8q0 8 5.5 14t14.5 6h210v54q0 57 -35 87.5t-89 30.5t-89.5 -30.5t-35.5 -87.5v-172q0 -57 35.5 -87.5t89 -30.5t89 29.5t35.5 84.5q0 8 5.5 14t13.5 6h8q9 0 14.5 -6t5.5 -14
q-1 -77 -48 -119.5t-123 -42.5t-124.5 43.5t-48.5 121.5v174q0 79 48 122z" />
    <glyph glyph-name="f" unicode="f" horiz-adv-x="336" 
d="M158 500h106q8 0 13.5 -6t5.5 -14v-4q0 -8 -5.5 -14t-13.5 -6h-106l-1 -437q0 -19 -19 -19h-8q-20 0 -20 19l1 558q-1 74 38.5 114.5t108.5 40.5q45 0 45 -20v-8q0 -7 -5.5 -13t-13.5 -6h-25q-47 0 -74 -28t-27 -81v-76zM46 500h24q9 0 14.5 -6t5.5 -14v-4q0 -8 -5.5 -14
t-14.5 -6h-24q-9 0 -14.5 6t-5.5 14v4q0 8 5.5 14t14.5 6z" />
    <glyph glyph-name="g" unicode="g" horiz-adv-x="518" 
d="M118 458q48 43 125.5 43t124 -43t46.5 -122v-412q0 -85 -45 -129.5t-120.5 -44.5t-121.5 42t-47 118q0 18 19 18h8q20 0 20 -18q2 -55 35.5 -84t86.5 -29t85.5 32t32.5 96v111q-54 -39 -127.5 -39t-121.5 43t-48 122v174q0 79 48 122zM332 423.5q-35 30.5 -89.5 30.5
t-89.5 -30.5t-35 -88.5v-172q0 -57 36.5 -87.5t87 -30.5t83 16.5t42.5 36.5v238q0 57 -35 87.5z" />
    <glyph glyph-name="h" unicode="h" horiz-adv-x="476" 
d="M244 502q69 0 112.5 -44t43.5 -121v-317q0 -20 -19 -20h-9q-20 0 -20 20v316q0 57 -31 88t-83.5 31t-90.5 -38q-9 -9 -17 -9q-18 0 -19 20q0 7 4 15q13 24 50 41.5t79 17.5zM78 731h8q8 0 14 -5.5t6 -14.5v-691q0 -9 -6 -14.5t-14 -5.5h-8q-8 0 -14 5.5t-6 14.5v691
q0 9 6 14.5t14 5.5z" />
    <glyph glyph-name="i" unicode="i" horiz-adv-x="204" 
d="M91 501h17q12 0 16 -5t4 -15v-461q0 -9 -6 -14.5t-14 -5.5h-17q-8 0 -14 5.5t-6 14.5v461q0 13 5.5 16.5t14.5 3.5zM98 732q36 0 47 -9.5t11 -39.5v-13q0 -34 -11 -43t-47 -9t-46 9t-10 43v13q0 32 10 40.5t46 8.5zM116.5 693.5q-4.5 3.5 -18 3.5t-17.5 -3t-4 -14v-10
q0 -11 4 -14t18 -3t18 3t4 14v10q0 10 -4.5 13.5z" />
    <glyph glyph-name="j" unicode="j" horiz-adv-x="248" 
d="M1 -203q110 0 110 117v566q0 9 6 14.5t14 5.5h8q8 0 14 -5.5t6 -14.5v-566q0 -164 -157 -164h-9q-19 0 -19 19v8q0 9 6 14.5t12 5.5h9zM137 732q36 0 47 -9.5t11 -39.5v-13q0 -34 -11 -43t-47 -9t-46 9t-10 43v13q0 32 10 40.5t46 8.5zM155.5 693.5q-4.5 3.5 -18 3.5
t-17.5 -3t-4 -14v-10q0 -11 4 -14t18 -3t18 3t4 14v10q0 10 -4.5 13.5z" />
    <glyph glyph-name="k" unicode="k" horiz-adv-x="471" 
d="M78 730h9q19 0 19 -19v-641q22 34 131 219t121 205q4 6 15 6h22q13 0 13 -10t-74 -132l-57 -94l131 -240q5 -8 5 -14q0 -10 -13 -10h-22q-8 0 -16 10l-113 206q-104 -174 -115.5 -190t-20 -21t-19.5 -5q-35 0 -35 39v672q0 19 19 19z" />
    <glyph glyph-name="l" unicode="l" horiz-adv-x="294" 
d="M90 730h8q19 0 19 -19v-557q0 -107 91 -107h16q8 0 13.5 -6t5.5 -13v-8q0 -20 -36 -20q-68 0 -103 39t-34 114v558q0 19 20 19z" />
    <glyph glyph-name="m" unicode="m" horiz-adv-x="779" 
d="M545 502q74 0 114 -43t40 -122v-317q0 -20 -19 -20h-8q-20 0 -20 20v316q0 59 -28 89t-82.5 30t-95.5 -45q-11 -9 -19 -9q-18 0 -19 20q0 8 4 16q21 29 56 47t77 18zM85 499h8q8 0 14 -5.5t6 -14.5v-459q0 -9 -6 -14.5t-14 -5.5h-8q-19 0 -19 20v459q0 20 19 20zM122 437
q46 65 125 65t119 -43t40 -122v-317q0 -20 -19 -20h-8q-20 0 -20 20v316q0 59 -28 89t-81.5 30t-93.5 -45q-11 -9 -19 -9q-18 0 -19 20q0 8 4 16z" />
    <glyph glyph-name="n" unicode="n" horiz-adv-x="479" 
d="M248 502q75 0 115 -39.5t40 -115.5v-327q0 -20 -19 -20h-8q-20 0 -20 20v316q0 119 -109 119q-57 0 -97 -45q-11 -9 -19 -9q-18 0 -19 20q0 8 4 16q21 29 56 47t76 18zM79 499h8q8 0 14 -5.5t6 -14.5v-459q0 -9 -6 -14.5t-14 -5.5h-8q-8 0 -14 5.5t-6 14.5v459
q0 9 6 14.5t14 5.5z" />
    <glyph glyph-name="o" unicode="o" horiz-adv-x="504" 
d="M118 459q48 43 125 43t124 -43.5t47 -121.5v-174q0 -78 -47 -121.5t-123.5 -43.5t-125 43.5t-48.5 121.5v174q0 79 48 122zM332 424.5q-35 30.5 -89 30.5t-90 -30.5t-36 -87.5v-174q0 -57 36 -87.5t90 -30.5t89 30.5t35 87.5v174q0 57 -35 87.5z" />
    <glyph glyph-name="p" unicode="p" horiz-adv-x="510" 
d="M105.5 458.5q47.5 43.5 124 43.5t124.5 -43t48 -122v-174q0 -77 -48 -121t-124.5 -44t-124.5 41v-270q0 -19 -19 -19h-9q-19 0 -19 19v568q0 78 47.5 121.5zM230 454q-54 0 -89.5 -30.5t-35.5 -87.5v-243q61 -47 120 -47t94.5 31t35.5 88v171q0 58 -35.5 88t-89.5 30z
" />
    <glyph glyph-name="q" unicode="q" horiz-adv-x="516" 
d="M221 502q77 0 124.5 -43.5t47.5 -121.5v-568q0 -8 -6 -13.5t-14 -5.5h-8q-8 0 -14 5.5t-6 13.5v270q-53 -41 -126.5 -41t-122 44t-48.5 121v174q0 79 48 122t125 43zM221 454q-54 0 -89.5 -30t-35.5 -88v-171q0 -57 35.5 -88t95.5 -31t101 41q5 8 17 6v243q0 57 -35 87.5
t-89 30.5z" />
    <glyph glyph-name="r" unicode="r" horiz-adv-x="291" 
d="M240 502q19 0 19 -20v-7q0 -8 -5.5 -14t-13.5 -6q-57 0 -91 -29t-34 -89v-317q0 -9 -6 -14.5t-14 -5.5h-7q-8 0 -14 5.5t-6 14.5v317q0 82 46 123.5t126 41.5z" />
    <glyph glyph-name="s" unicode="s" horiz-adv-x="455" 
d="M113.5 464q38.5 38 115 38t117.5 -37.5t41 -110.5q0 -8 -5.5 -13.5t-13.5 -5.5h-9q-8 0 -13.5 5.5t-5.5 12.5q0 101 -113 101q-52 0 -78.5 -25t-26.5 -63t25.5 -60.5t96.5 -36.5t111 -44t40 -89.5t-43.5 -99t-121 -39.5t-125.5 39.5t-48 116.5q0 21 20 21h8q19 0 19 -20
q0 -109 129 -109q58 0 86.5 26.5t28.5 65.5t-30 56.5t-104.5 33.5t-106.5 51t-32 91.5t38.5 94.5z" />
    <glyph glyph-name="t" unicode="t" horiz-adv-x="336" 
d="M113 730h8q19 0 19 -19l-3 -557q1 -51 28.5 -79t72.5 -28h25q8 0 13.5 -6t5.5 -13v-8q0 -20 -45 -20q-66 0 -106 40.5t-41 112.5l3 558q2 19 20 19zM36 500h24q9 0 14.5 -6t5.5 -14v-6q0 -8 -5.5 -14t-14.5 -6h-24q-9 0 -14.5 6t-5.5 14v6q0 8 5.5 14t14.5 6zM170 500h74
q8 0 13.5 -6t5.5 -14v-6q0 -8 -5.5 -14t-13.5 -6h-74q-8 0 -14 6t-6 14v6q0 8 6 14t14 6z" />
    <glyph glyph-name="u" unicode="u" horiz-adv-x="498" 
d="M90 502h8q20 0 20 -20v-316q0 -59 29.5 -89t83.5 -30t93 43q9 11 19 11q19 0 19 -22q0 -9 -5 -16q-20 -28 -56 -45.5t-76 -17.5q-69 0 -111.5 43.5t-42.5 121.5v317q0 20 19 20zM386 500h10q19 0 19 -20v-363q0 -39 6.5 -53.5t25.5 -19.5l11 -3q15 -3 15 -13v-11
q0 -17 -20 -17q-49 0 -67.5 29t-18.5 89v362q0 20 19 20z" />
    <glyph glyph-name="v" unicode="v" horiz-adv-x="488" 
d="M409 500h9q11 0 15.5 -6.5t4.5 -11t-1 -8.5l-165 -447q-12 -28 -39 -28t-36 27l-165 448q-1 4 -1 8.5t4.5 11t15.5 6.5h9q12 0 19 -13l156 -427l155 427q6 13 19 13z" />
    <glyph glyph-name="w" unicode="w" horiz-adv-x="585" 
d="M530 500h9q9 0 14 -6.5t5 -11t-9 -42.5t-45.5 -190.5t-55.5 -226.5q-8 -25 -37 -25t-40 30l-90 294q-64 -204 -90 -294q-11 -30 -40 -30t-37 25l-110 453q-1 3 -1 7.5t4.5 10.5t14.5 6h9q16 0 19 -15l102 -423l98 317q6 28 30.5 28t33.5 -27q32 -111 96 -318l103 423
q4 15 17 15z" />
    <glyph glyph-name="x" unicode="x" horiz-adv-x="442" 
d="M351 500h11q11 0 16 -10.5t0 -20.5q-22 -34 -67.5 -104t-66.5 -104v1q-6 -9 -7 -10l6 -10v1l142 -212q3 -5 3 -10q0 -21 -20 -21h-10q-9 0 -17 8l-132 201q-22 -34 -66.5 -100.5t-66.5 -100.5q-8 -8 -17 -8h-10q-13 0 -16.5 7.5t-3.5 12.5t3 11l142 213v-1l6 9
q-5 7 -7 10l-134 207q-5 10 0 20.5t16 10.5h10q9 0 17 -8l127 -196l126 196q8 8 16 8z" />
    <glyph glyph-name="y" unicode="y" horiz-adv-x="508" 
d="M383 500h9q19 0 19 -20v-534q0 -86 -45.5 -131t-123.5 -45t-120.5 41.5t-44.5 118.5q0 19 19 19h9q19 0 19 -19q2 -55 35.5 -84t85.5 -29q119 0 119 128v535q0 20 19 20zM87 502h8q20 0 20 -20v-316q0 -59 29.5 -89t83.5 -30t93 43q9 11 19 11q19 0 19 -22q0 -9 -5 -16
q-20 -28 -56 -45.5t-76 -17.5q-69 0 -111.5 43.5t-42.5 121.5v317q0 20 19 20z" />
    <glyph glyph-name="z" unicode="z" horiz-adv-x="456" 
d="M74 500h265q40 0 40 -35q0 -15 -17 -38l-252 -380h255q19 0 19 -19v-8q0 -20 -19 -20h-274q-17 0 -27 10t-10 25t17 39l249 379h-246q-19 0 -19 19v8q0 20 19 20z" />
    <glyph glyph-name="braceleft" unicode="{" horiz-adv-x="339" 
d="M291 687q11 0 15.5 -6t4.5 -10q0 -19 -9 -25.5t-14 -6.5q-137 -3 -137 -124v-28v-12q0 -103 -48 -134q36 -23 43 -70q5 -38 5 -74v-27q0 -121 140 -124q8 0 14 -5.5t6 -13.5l-4 -15q-4 -14 -19 -14q-185 3 -185 172v25v10q0 104 -63 104h-5q-14 0 -25.5 8.5t-11.5 24.5
t11.5 24t25.5 8h5q63 0 63 103v10v28q0 169 188 172z" />
    <glyph glyph-name="bar" unicode="|" horiz-adv-x="211" 
d="M95 730h12q19 0 19 -19v-783q0 -8 -5.5 -14t-13.5 -6h-12q-8 0 -13.5 6t-5.5 14v783q0 19 19 19z" />
    <glyph glyph-name="braceright" unicode="}" horiz-adv-x="339" 
d="M222 515v-28v-10q0 -103 63 -103h6q13 0 24.5 -8t11.5 -24t-11.5 -24.5t-24.5 -8.5h-6q-63 0 -63 -104v-10v-25q0 -169 -188 -172q-19 0 -19 20l4 14q1 6 7 10t11 4q138 3 138 124v27q0 112 47 144q-23 14 -34.5 44.5t-12.5 44.5t-1 27t1 30v28q0 121 -141 124
q-11 0 -15.5 6t-4.5 10t5 18t18 14q185 -3 185 -172z" />
    <glyph glyph-name="asciitilde" unicode="~" 
d="M453 508h24q13 0 13 -17q0 -55 -30 -84t-72 -29t-82 21.5t-76 42.5t-59 21t-42.5 -16t-19.5 -51q0 -18 -15 -18h-15q-13 0 -13 18q0 51 30 80.5t73.5 29.5t112 -42t96.5 -42q66 0 66 69q0 17 9 17z" />
    <glyph glyph-name="exclamdown" unicode="&#xa1;" horiz-adv-x="222" 
d="M112 -200h-10q-19 0 -19 19v479q0 19 19 19h10q8 0 14 -5.5t6 -13.5v-479q0 -8 -6 -13.5t-14 -5.5zM106 389q-36 0 -46 8.5t-10 40.5v13q0 34 10 43t46 9t47 -9t11 -43v-13q0 -30 -11 -39.5t-47 -9.5zM89 427q4 -3 17.5 -3t18 3.5t4.5 13.5v10q0 11 -4 14t-18 3t-18 -3
t-4 -14v-10q0 -11 4 -14z" />
    <glyph glyph-name="cent" unicode="&#xa2;" horiz-adv-x="505" 
d="M242 684h7q8 0 14 -5.5t6 -13.5v-164q66 -7 105.5 -49.5t39.5 -114.5q0 -19 -20 -19h-8q-19 0 -19 19q0 49 -27 78.5t-71 36.5v-405q43 7 70 36t28 77q0 8 5.5 14t13.5 6h8q9 0 14.5 -6t5.5 -14q-2 -70 -41.5 -112t-103.5 -49v-163q0 -8 -6 -13.5t-14 -5.5h-7
q-8 0 -14 5.5t-6 13.5v163q-69 6 -110.5 49t-41.5 115v174q0 73 41.5 115.5t110.5 48.5v164q0 8 6 13.5t14 5.5zM118 164q0 -52 28.5 -81.5t75.5 -35.5v406q-47 -6 -75.5 -36t-28.5 -81v-172z" />
    <glyph glyph-name="sterling" unicode="&#xa3;" 
d="M214.5 628.5q-28.5 -22.5 -38.5 -53t-10 -68.5v-457l310 1q8 0 14 -6t6 -15v-10q-2 -18 -20 -20l-316 1q-27 0 -35.5 9t-8.5 35l-1 467q0 84 42.5 136t134.5 52q59 0 121 -31q22 -11 29 -19t1 -17l-13 -21q-5 -10 -38 8q-54 31 -101.5 31t-76 -22.5zM47 379h46q8 0 14 -6
t6 -14v-9q0 -8 -6 -13.5t-14 -5.5h-46q-19 0 -19 19v9q0 8 5.5 14t13.5 6zM198 379h197q9 0 14.5 -6t5.5 -14v-9q0 -19 -20 -19h-197q-8 0 -14 5.5t-6 13.5v9q0 8 6 14t14 6z" />
    <glyph glyph-name="currency" unicode="&#xa4;" horiz-adv-x="609" 
d="M65 536q-5 7 -5 14.5t8.5 16t16 8.5t14.5 -5l75 -77q56 46 130 46t130 -45l76 76q5 5 14.5 5t17 -7.5t7.5 -17t-5 -14.5l-77 -76q45 -56 45 -129t-45 -130l77 -76q5 -7 5 -14.5t-8.5 -16t-16 -8.5t-14.5 5l-76 77q-56 -44 -128.5 -44t-130.5 44l-76 -77q-7 -5 -14 -5
q-10 0 -20 10q-5 8 -5 15t5 14l77 76q-45 57 -45 130t44 129zM417 444q-47 47 -112.5 47t-112 -46.5t-46.5 -113t46 -112.5t112.5 -46t113 46.5t46.5 112t-47 112.5z" />
    <glyph glyph-name="yen" unicode="&#xa5;" horiz-adv-x="436" 
d="M43 357h133l-176 297q-3 5 -3 10t4 12.5t16 7.5h11q12 0 17 -9l167 -284l155 283q5 10 18 10h11q12 0 16 -7t4 -12t-3 -10l-166 -298h129q20 0 20 -19v-9q0 -8 -5.5 -14t-14.5 -6h-141v-29h141q9 0 14.5 -6t5.5 -14v-9q0 -8 -5.5 -14t-14.5 -6h-141v-211q0 -20 -19 -20
h-9q-8 0 -14 5.5t-6 14.5v211h-144q-8 0 -13.5 6t-5.5 14v9q0 8 5.5 14t13.5 6h144v29h-144q-8 0 -13.5 6t-5.5 14v9q0 19 19 19z" />
    <glyph glyph-name="brokenbar" unicode="&#xa6;" horiz-adv-x="200" 
d="M93 684h9q19 0 19 -19v-240q0 -8 -5.5 -14t-13.5 -6h-9q-9 0 -14.5 6t-5.5 14v240q0 19 20 19zM93 282h9q8 0 13.5 -6t5.5 -14v-240q0 -19 -19 -19h-9q-20 0 -20 19v240q0 8 5.5 14t14.5 6z" />
    <glyph glyph-name="section" unicode="&#xa7;" horiz-adv-x="474" 
d="M119.5 690q44.5 42 130.5 42t135 -43t49 -126q0 -8 -5.5 -14t-13.5 -6h-9q-20 0 -20 23q0 58 -36 87.5t-95 29.5t-93.5 -26t-34.5 -67q0 -50 47 -84q32 -23 81 -50t56.5 -31.5t32 -19t32 -21.5t23 -21.5t20.5 -26.5q15 -38 15 -67q0 -53 -34 -93.5t-92 -55.5
q59 -33 81.5 -64.5t22.5 -75.5q0 -68 -52 -108t-129.5 -40t-134 44t-56.5 124q0 8 5.5 14t13.5 6h9q20 0 20 -23q0 -52 42 -85.5t98.5 -33.5t96.5 26.5t40 73.5q0 49 -45 82q-36 25 -109 58.5t-118.5 77.5t-45.5 100.5t30.5 98.5t85.5 59q-48 33 -68 64t-20 80.5t44.5 91.5z
M96 307q0 -60 50 -99q38 -28 97 -55q64 3 104 34.5t40 80.5q0 53 -43 84q-27 18 -54 32l-74 38q-51 -2 -85.5 -35.5t-34.5 -79.5z" />
    <glyph glyph-name="dieresis" unicode="&#xa8;" horiz-adv-x="361" 
d="M214 659q9 8 41.5 8t42.5 -8.5t10 -36.5v-12q0 -30 -10 -38.5t-42.5 -8.5t-41.5 8.5t-9 38.5v12q0 29 9 37zM48 659q9 8 41.5 8t42.5 -8.5t10 -36.5v-12q0 -30 -10 -38.5t-42.5 -8.5t-41.5 8t-9 39v12q0 29 9 37zM106 632q-4 3 -16 3t-15.5 -2.5t-3.5 -12.5v-10
q0 -10 3.5 -12.5t16 -2.5t16 2.5t3.5 12.5v10q0 9 -4 12zM272 632q-4 3 -16 3t-15.5 -2.5t-3.5 -12.5v-10q0 -10 3.5 -12.5t16 -2.5t16 2.5t3.5 12.5v10q0 9 -4 12z" />
    <glyph glyph-name="copyright" unicode="&#xa9;" horiz-adv-x="620" 
d="M312 756q133 0 210.5 -76.5t77.5 -201.5v-200q0 -125 -77.5 -201.5t-209.5 -76.5t-212.5 77t-80.5 201v200q0 129 79.5 203.5t212.5 74.5zM195.5 566q43.5 39 113.5 39t112.5 -39.5t42.5 -110.5q0 -17 -18 -17h-8q-7 0 -12 5t-5 12q0 51 -31.5 78.5t-80.5 27.5t-81 -27.5
t-32 -79.5v-156q0 -52 32 -79.5t81 -27.5t80 26.5t32 76.5q0 18 17 18h8q18 0 18 -18q-2 -69 -44.5 -108t-111 -39t-112.5 40t-44 110v158q0 72 43.5 111zM312 708q-100 0 -172 -56.5t-72 -159.5v-228q0 -103 72 -159.5t172 -56.5t170 56t70 160v228q0 104 -70 160t-170 56z
" />
    <glyph glyph-name="ordfeminine" unicode="&#xaa;" horiz-adv-x="504" 
d="M376 399q-54 0 -54 66v151q0 35 -20 55t-55.5 20t-55.5 -21t-20 -56v-97q0 -82 76 -82q23 0 46 14q5 4 8 -2l9 -23q4 -7 0 -10q-30 -20 -74 -20t-75 29.5t-31 83.5v117q0 54 31.5 81t85.5 27q116 0 116 -115v-129q0 -40 9 -47q11 -9 24 -4t13 -2v-25q0 -4 -8.5 -7.5
t-24.5 -3.5z" />
    <glyph glyph-name="guillemotleft" unicode="&#xab;" horiz-adv-x="558" 
d="M481 530q6 3 14 3t15 -7t7 -18t-12 -20l-225 -168l225 -168q13 -9 13 -18q0 -28 -24 -28q-8 0 -13 4l-230 173q-20 15 -20 36t21 37zM310 530q6 3 14 3t15 -7t7 -18t-12 -20l-225 -168l225 -168q13 -9 13 -18q0 -28 -24 -28q-8 0 -13 4l-230 173q-20 15 -20 36t21 37z
" />
    <glyph glyph-name="logicalnot" unicode="&#xac;" horiz-adv-x="480" 
d="M12 500h454q18 0 20.5 -3t3.5 -4t1.5 -5t0.5 -6v-169q0 -19 -19 -19h-10q-19 0 -19 19v139h-432q-20 0 -20 19v9q0 20 20 20z" />
    <glyph glyph-name="softhyphen" unicode="&#xad;" horiz-adv-x="351" 
d="M51 346h249q20 0 20 -19v-10q0 -19 -20 -19h-249q-20 0 -20 19v10q0 19 20 19z" />
    <glyph glyph-name="registered" unicode="&#xae;" 
d="M312 756q133 0 210.5 -76.5t77.5 -201.5v-200q0 -125 -77.5 -201.5t-209.5 -76.5t-212.5 77t-80.5 201v200q0 129 79.5 203.5t212.5 74.5zM312 708q-100 0 -172 -56.5t-72 -159.5v-228q0 -103 72 -159.5t172 -56.5t170 56t70 160v228q0 104 -70 160t-170 56zM208 615h111
q67 0 108 -33.5t41 -99.5q0 -52 -32 -86q-13 -14 -42 -25t-68 -11h-10l129 -196q13 -22 13 -25q0 -11 -16 -11h-13q-14 0 -19 8l-139 211q-13 22 -13 30q0 21 26 21h31q109 0 109 82q0 28 -11.5 48t-30.5 28q-33 16 -64 16h-102v-428q0 -15 -19 -15h-5q-19 0 -19 15v436
q0 25 5.5 30t29.5 5z" />
    <glyph glyph-name="macron" unicode="&#xaf;" horiz-adv-x="509" 
d="M70 601h370q19 0 19 -19v-9q0 -20 -19 -20h-370q-20 0 -20 20v9q0 19 20 19z" />
    <glyph glyph-name="degree" unicode="&#xb0;" horiz-adv-x="438" 
d="M219 758q53 0 91 -38t38 -91t-38 -91t-91 -38t-91 38t-38 91t38 91t91 38zM219 708q-34 0 -56.5 -22.5t-22.5 -56.5t22.5 -56.5t56.5 -22.5t56.5 22.5t22.5 56.5t-22.5 56.5t-56.5 22.5z" />
    <glyph glyph-name="plusminus" unicode="&#xb1;" horiz-adv-x="366" 
d="M-15 366h171v172q0 19 19 19h8q19 -2 21 -19v-172h171q19 0 19 -19v-9q0 -8 -5.5 -14t-13.5 -6h-171v-171q-2 -20 -20 -20h-10q-18 2 -18 20v171h-171q-9 0 -14.5 6t-5.5 14v9q0 19 20 19zM-16 49h390q19 0 19 -19v-9q0 -8 -5.5 -14t-13.5 -6h-390q-9 0 -14.5 6t-5.5 14
v9q0 19 20 19z" />
    <glyph glyph-name="twosuperior" unicode="&#xb2;" horiz-adv-x="500" 
d="M321 774q0 68 -77 68q-63 0 -82 -60q-2 -7 -12 -7h-7q-15 0 -15 9q0 13 3 16q12 37 43.5 57.5t78 20.5t77.5 -29.5t31 -75.5q0 -62 -76 -159q-15 -19 -63 -76l-48 -57h179q13 0 13 -12v-14q0 -12 -13 -12h-207q-27 0 -27 23q0 11 36 53q84 98 100 120q66 85 66 135z" />
    <glyph glyph-name="threesuperior" unicode="&#xb3;" horiz-adv-x="535" 
d="M187 861.5q31 25.5 80 25.5t79 -33t30 -83q0 -31 -16.5 -58.5t-49.5 -41.5q76 -23 76 -107q0 -60 -39 -90t-88 -30q-104 0 -124 96q-2 6 -2 9t6 3l24 1h3q1 0 3 -7q17 -66 90 -66q40 0 65.5 22t25.5 62t-25 64.5t-79 24.5h-37q-7 0 -7.5 1.5t-0.5 16.5q5 16 9 17h34
q48 0 72 23t24 60t-20 59t-62 22q-58 0 -68 -57q-1 -4 -5 -4h-31q-6 0 -3 11q5 34 36 59.5z" />
    <glyph glyph-name="acute" unicode="&#xb4;" horiz-adv-x="358" 
d="M241 732q26 0 26 -23q0 -5 -7 -13l-107 -133q-14 -17 -29.5 -17t-20.5 7.5t-5 13t5 11.5l107 136q4 4 5 6t3.5 4.5t3.5 3t4 2.5t5 1.5t5 0t5 0.5z" />
    <glyph glyph-name="mu" unicode="&#xb5;" horiz-adv-x="474" 
d="M78 500h9q19 0 19 -20v-374q9 0 17 -10q31 -50 106 -50q54 0 89.5 30.5t35.5 87.5v316q0 20 20 20h8q19 0 19 -20v-317q0 -77 -48 -121t-123 -44t-124 44v-253q0 -19 -19 -19h-9q-19 0 -19 19v691q0 20 19 20z" />
    <glyph glyph-name="paragraph" unicode="&#xb6;" 
d="M254 700h51q16 0 16 -20v-9q0 -18 -16 -18l-49 -1q-145 -4 -145 -134q0 -63 43 -98t109 -35h42q15 0 15 -20v-7q0 -20 -15 -20h-45q-92 0 -144.5 52t-52.5 133t53 129t138 48zM381 730h12q19 0 19 -19v-783q0 -8 -5.5 -14t-13.5 -6h-12q-8 0 -13.5 6t-5.5 14v783
q0 19 19 19zM473 730h12q19 0 19 -19v-783q0 -8 -5.5 -14t-13.5 -6h-12q-8 0 -13.5 6t-5.5 14v783q0 19 19 19z" />
    <glyph glyph-name="periodcentered" unicode="&#xb7;" horiz-adv-x="228" 
d="M113 354q43 0 56.5 -11t13.5 -48v-15q0 -42 -13 -53t-57 -11t-56 11t-12 53v15q0 38 12.5 48.5t55.5 10.5zM135 307q-5 4 -21.5 4t-21 -3.5t-4.5 -17.5v-10q0 -14 4.5 -17.5t21.5 -3.5t21.5 3.5t4.5 17.5v10q0 13 -5 17z" />
    <glyph glyph-name="cedilla" unicode="&#xb8;" 
d="M366 -123v-42q0 -40 -27.5 -62.5t-60 -22.5t-58 10.5t-37.5 24.5l23 38q11 -15 30.5 -22.5t38 -7.5t34 12.5t15.5 36.5v28q0 23 -16 36t-44 13t-37 -3v1l38 113l42 -1l-24 -67q38 -3 60.5 -25t22.5 -60z" />
    <glyph glyph-name="onesuperior" unicode="&#xb9;" horiz-adv-x="383" 
d="M231 851v-394q0 -14 -12 -14h-17q-12 0 -12 13v387l-105 -83q-10 -8 -16 1l-7 9q-3 3 -3 7t6 9l109 90q14 12 30 12q27 -1 27 -37z" />
    <glyph glyph-name="ordmasculine" unicode="&#xba;" horiz-adv-x="504" 
d="M167.5 703q32.5 29 85.5 29t85 -30t32 -83v-119q0 -53 -32 -82.5t-84.5 -29.5t-85.5 29.5t-33 82.5v119q0 55 32.5 84zM254 691q-41 0 -60 -22.5t-19 -59.5v-99q0 -36 19.5 -58.5t59.5 -22.5q73 0 73 81v99q0 82 -73 82z" />
    <glyph glyph-name="guillemotright" unicode="&#xbb;" horiz-adv-x="538" 
d="M209 526q7 7 15 7t14 -3l229 -174q21 -16 21 -37t-20 -36l-230 -173q-5 -4 -17 -4t-16 10t-4 18.5t13 17.5l224 168l-224 168q-12 9 -12 20t7 18zM38 526q7 7 15 7t14 -3l229 -174q21 -16 21 -37t-20 -36l-230 -173q-5 -4 -17 -4t-16 10t-4 18.5t13 17.5l224 168
l-224 168q-12 9 -12 20t7 18z" />
    <glyph glyph-name="onequarter" unicode="&#xbc;" horiz-adv-x="700" 
d="M193 692v-394q0 -14 -12 -14h-17q-12 0 -12 13v387l-105 -83q-10 -8 -16 1l-7 9q-3 3 -3 7t6 9l109 90q14 12 30 12q27 -1 27 -37zM65 0q-15 0 -15 15q0 6 4 11l568 699q10 13 21 13h3q11 0 16.5 -9t-1.5 -17l-567 -699q-8 -13 -18 -13h-11zM550 427q12 17 29.5 17t27 -8
t9.5 -21v-228h61q5 0 8.5 -4.5t3.5 -9.5v-7q0 -17 -12 -17h-61v-137q0 -12 -12 -12h-14q-13 0 -13 12v137h-161q-26 0 -32 21q-1 4 -1 10t5 14zM577 187v216l-148 -216h148z" />
    <glyph glyph-name="onehalf" unicode="&#xbd;" horiz-adv-x="500" 
d="M193 699v-394q0 -14 -12 -14h-17q-12 0 -12 13v387l-105 -83q-10 -8 -16 1l-7 9q-3 3 -3 7t6 9l109 90q14 12 30 12q27 -1 27 -37zM67 0q-15 0 -15 15q0 6 4 11l568 699q10 13 21 13h3q11 0 16.5 -9t-1.5 -17l-567 -699q-8 -13 -18 -13h-11zM658 331q0 68 -77 68
q-63 0 -82 -60q-2 -7 -12 -7h-7q-15 0 -15 9q0 13 3 16q12 37 43 57.5t78 20.5t78 -29.5t31 -75.5q0 -62 -76 -159q-15 -19 -63 -76l-48 -57h179q13 0 13 -12v-14q0 -12 -13 -12h-206q-28 0 -28 23q0 11 36 53q84 98 100 120q66 85 66 135z" />
    <glyph glyph-name="threequarters" unicode="&#xbe;" horiz-adv-x="700" 
d="M67 706.5q31 25.5 80 25.5t79 -33t30 -83q0 -31 -16.5 -58.5t-49.5 -41.5q76 -23 76 -107q0 -60 -39 -90t-88 -30q-104 0 -124 96q-2 6 -2 9t6 3l24 1h3q1 0 3 -7q17 -66 90 -66q40 0 65.5 22t25.5 62t-25 64.5t-79 24.5h-37q-7 0 -7.5 1.5t-0.5 16.5q5 16 9 17h34
q48 0 72 23t24 60t-20 59t-62 22q-58 0 -68 -57q-1 -4 -5 -4h-31q-6 0 -3 11q5 34 36 59.5zM76 0q-15 0 -15 15q0 6 4 11l568 699q10 13 21 13h3q11 0 16.5 -9t-1.5 -17l-567 -699q-8 -13 -18 -13h-11zM545 427q12 17 29.5 17t27 -8t9.5 -21v-228h61q5 0 8.5 -4.5t3.5 -9.5
v-7q0 -17 -12 -17h-61v-137q0 -12 -12 -12h-14q-13 0 -13 12v137h-161q-26 0 -32 21q-1 4 -1 10t5 14zM572 187v216l-148 -216h148z" />
    <glyph glyph-name="questiondown" unicode="&#xbf;" horiz-adv-x="442" 
d="M217 -177q-90 0 -134 52.5t-44 121.5t45 117t120 58q1 0 2 -1v143q0 19 19 19h9q20 0 20 -19v-148q0 -23 -10 -31t-36 -10q-52 -5 -86.5 -39t-34.5 -88t33.5 -90.5t96.5 -36.5q90 0 121 72q6 12 18 12h9q20 0 20 -16q0 -4 -1 -9q-20 -55 -65.5 -81t-101.5 -26zM233 398
q-36 0 -47 9.5t-11 39.5v13q0 34 11 43t47 9t46 -9t10 -43v-13q0 -32 -10 -40.5t-46 -8.5zM214.5 436.5q4.5 -3.5 18 -3.5t17.5 3t4 14v10q0 11 -4 14t-18 3t-18 -3t-4 -14v-10q0 -10 4.5 -13.5z" />
    <glyph glyph-name="Agrave" unicode="&#xc0;" horiz-adv-x="588" 
d="M246 674q9 27 38.5 27t39.5 -28l230 -646q1 -3 1 -7q0 -20 -20 -20h-12q-13 0 -19 13l-218 621l-219 -621q-6 -13 -19 -13h-12q-20 0 -20 20q0 4 1 7zM199 308h173q8 0 14 -5.5t6 -14.5v-9q0 -9 -6 -14.5t-14 -5.5h-173q-19 0 -19 20v9q0 20 19 20zM221 912q0 20 27 20
q14 0 18.5 -4.5t11.5 -13.5l107 -136q5 -6 5 -11.5t-5 -13t-20.5 -7.5t-29.5 17l-107 133q-7 8 -7 16z" />
    <glyph glyph-name="Aacute" unicode="&#xc1;" horiz-adv-x="588" 
d="M246 674q9 27 38.5 27t39.5 -28l230 -646q1 -3 1 -7q0 -20 -20 -20h-12q-13 0 -19 13l-218 621l-219 -621q-6 -13 -19 -13h-12q-20 0 -20 20q0 4 1 7zM199 308h173q8 0 14 -5.5t6 -14.5v-9q0 -9 -6 -14.5t-14 -5.5h-173q-19 0 -19 20v9q0 20 19 20zM345 932q26 0 26 -23
q0 -5 -7 -13l-107 -133q-14 -17 -29.5 -17t-20.5 7.5t-5 13t5 11.5l107 136q4 4 5 6t3.5 4.5t3.5 3t4 2.5t5 1.5t5 0t5 0.5z" />
    <glyph glyph-name="Acircumflex" unicode="&#xc2;" horiz-adv-x="588" 
d="M246 674q9 27 38.5 27t39.5 -28l230 -646q1 -3 1 -7q0 -20 -20 -20h-12q-13 0 -19 13l-218 621l-219 -621q-6 -13 -19 -13h-12q-20 0 -20 20q0 4 1 7zM199 308h173q8 0 14 -5.5t6 -14.5v-9q0 -9 -6 -14.5t-14 -5.5h-173q-19 0 -19 20v9q0 20 19 20zM248 933q14 19 37 19
t37 -19l121 -152q5 -6 5 -14q0 -18 -20 -18h-13q-11 0 -15 6l-113 145l-2 2l-111 -147q-4 -6 -14 -6h-13q-20 0 -20 18q0 6 5 14z" />
    <glyph glyph-name="Atilde" unicode="&#xc3;" horiz-adv-x="588" 
d="M246 674q9 27 38.5 27t39.5 -28l230 -646q1 -3 1 -7q0 -20 -20 -20h-12q-13 0 -19 13l-218 621l-219 -621q-6 -13 -19 -13h-12q-20 0 -20 20q0 4 1 7zM199 308h173q8 0 14 -5.5t6 -14.5v-9q0 -9 -6 -14.5t-14 -5.5h-173q-19 0 -19 20v9q0 20 19 20zM421 888h24
q13 0 13 -17q0 -56 -24 -84.5t-68 -28.5q-24 0 -45 12t-45.5 33.5t-38.5 30.5t-33 9t-34 -16.5t-15 -52.5q0 -16 -15 -16h-15q-13 0 -13 20q0 52 25.5 80t69.5 28q36 0 81 -36q5 -4 18.5 -15t18.5 -15q22 -18 39 -18q48 0 48 68v6q0 12 9 12z" />
    <glyph glyph-name="Adieresis" unicode="&#xc4;" horiz-adv-x="588" 
d="M246 674q9 27 38.5 27t39.5 -28l230 -646q1 -3 1 -7q0 -20 -20 -20h-12q-13 0 -19 13l-218 621l-219 -621q-6 -13 -19 -13h-12q-20 0 -20 20q0 4 1 7zM199 308h173q8 0 14 -5.5t6 -14.5v-9q0 -9 -6 -14.5t-14 -5.5h-173q-19 0 -19 20v9q0 20 19 20zM327 859q9 8 41.5 8
t42.5 -8.5t10 -36.5v-12q0 -30 -10 -38.5t-42.5 -8.5t-41.5 8.5t-9 38.5v12q0 29 9 37zM161 859q9 8 41.5 8t42.5 -8.5t10 -36.5v-12q0 -30 -10 -38.5t-42.5 -8.5t-41.5 8t-9 39v12q0 29 9 37zM219 832q-4 3 -16 3t-15.5 -2.5t-3.5 -12.5v-10q0 -10 3.5 -12.5t16 -2.5
t16 2.5t3.5 12.5v10q0 9 -4 12zM385 832q-4 3 -16 3t-15.5 -2.5t-3.5 -12.5v-10q0 -10 3.5 -12.5t16 -2.5t16 2.5t3.5 12.5v10q0 9 -4 12z" />
    <glyph glyph-name="Aring" unicode="&#xc5;" horiz-adv-x="588" 
d="M246 674q9 27 38.5 27t39.5 -28l230 -646q1 -3 1 -7q0 -20 -20 -20h-12q-13 0 -19 13l-218 621l-219 -621q-6 -13 -19 -13h-12q-20 0 -20 20q0 4 1 7zM199 308h173q8 0 14 -5.5t6 -14.5v-9q0 -9 -6 -14.5t-14 -5.5h-173q-19 0 -19 20v9q0 20 19 20zM214 911
q26 22 71.5 22t70 -22t24.5 -63v-62q0 -41 -24.5 -63t-70 -22t-71.5 22t-26 63v62q0 41 26 63zM323 877q-15 13 -38 13t-39 -12.5t-16 -36.5v-48q0 -24 16 -36.5t39 -12.5t38 13t15 36v48q0 23 -15 36z" />
    <glyph glyph-name="AE" unicode="&#xc6;" horiz-adv-x="1088" 
d="M540 700q-22 0 -31 -9.5t-9 -29.5v-621q0 -19 7.5 -29.5t31.5 -10.5h350q8 0 14 6t6 14v9q0 9 -6 14.5t-14 5.5h-339v602h339q8 0 14 5.5t6 14.5v9q0 8 -6 14t-14 6h-349zM610 388h214q9 0 14.5 -6t5.5 -14v-9q0 -20 -20 -20h-214q-20 0 -20 20v9q0 8 5.5 14t14.5 6z
M246 674q9 27 38.5 27t39.5 -28l230 -646q1 -3 1 -7q0 -20 -20 -20h-12q-13 0 -19 13l-218 621l-219 -621q-6 -13 -19 -13h-12q-20 0 -20 20q0 4 1 7zM199 308h173q8 0 14 -5.5t6 -14.5v-9q0 -9 -6 -14.5t-14 -5.5h-173q-19 0 -19 20v9q0 20 19 20z" />
    <glyph glyph-name="Ccedilla" unicode="&#xc7;" horiz-adv-x="564" 
d="M228.5 701.5q-27.5 -4.5 -63 -21t-62 -42t-45 -73.5t-18.5 -111v-203q0 -61 19 -108.5t46.5 -73.5t64 -43t66 -22t70 -5t94.5 21q35 14 61 37.5t45.5 69.5t19.5 107q0 20 -20 20h-8q-9 0 -14.5 -5t-5.5 -22q0 -106 -62 -145q-29 -19 -58.5 -26.5t-71.5 -7.5t-90 21
q-30 13 -52.5 34.5t-38.5 60.5t-16 90v196q0 51 14.5 90t35.5 60.5t49 34.5t50.5 17t57 4t74.5 -17q27 -11 48 -28t37 -49t21 -74q2 -18 20 -18h9q20 0 20 22q-5 52 -25 91.5t-46 62t-58.5 37t-59.5 19t-53.5 4.5t-54 -4.5zM366 -142v-42q0 -40 -27.5 -62.5t-60 -22.5
t-58 10.5t-37.5 24.5l23 38q11 -15 30.5 -22.5t38 -7.5t34 12.5t15.5 36.5v28q0 23 -16 36t-44 13t-37 -3v1l38 113l42 -1l-24 -67q38 -3 60.5 -25t22.5 -60z" />
    <glyph glyph-name="Egrave" unicode="&#xc8;" horiz-adv-x="500" 
d="M102 700h349q8 0 14 -6t6 -14v-9q0 -9 -6 -14.5t-14 -5.5h-339v-602h339q8 0 14 -5.5t6 -14.5v-9q0 -8 -6 -14t-14 -6h-350q-24 0 -31.5 10.5t-7.5 29.5v621q0 20 9 29.5t31 9.5zM172 388h214q9 0 14.5 -6t5.5 -14v-9q0 -20 -20 -20h-214q-20 0 -20 20v9q0 8 5.5 14
t14.5 6zM185 912q0 20 27 20q14 0 18.5 -4.5t11.5 -13.5l107 -136q5 -6 5 -11.5t-5 -13t-20.5 -7.5t-29.5 17l-107 133q-7 8 -7 16z" />
    <glyph glyph-name="Eacute" unicode="&#xc9;" horiz-adv-x="500" 
d="M102 700h349q8 0 14 -6t6 -14v-9q0 -9 -6 -14.5t-14 -5.5h-339v-602h339q8 0 14 -5.5t6 -14.5v-9q0 -8 -6 -14t-14 -6h-350q-24 0 -31.5 10.5t-7.5 29.5v621q0 20 9 29.5t31 9.5zM172 388h214q9 0 14.5 -6t5.5 -14v-9q0 -20 -20 -20h-214q-20 0 -20 20v9q0 8 5.5 14
t14.5 6zM309 932q26 0 26 -23q0 -5 -7 -13l-107 -133q-14 -17 -29.5 -17t-20.5 7.5t-5 13t5 11.5l107 136q4 4 5 6t3.5 4.5t3.5 3t4 2.5t5 1.5t5 0t5 0.5z" />
    <glyph glyph-name="Ecircumflex" unicode="&#xca;" horiz-adv-x="500" 
d="M102 700h349q8 0 14 -6t6 -14v-9q0 -9 -6 -14.5t-14 -5.5h-339v-602h339q8 0 14 -5.5t6 -14.5v-9q0 -8 -6 -14t-14 -6h-350q-24 0 -31.5 10.5t-7.5 29.5v621q0 20 9 29.5t31 9.5zM172 388h214q9 0 14.5 -6t5.5 -14v-9q0 -20 -20 -20h-214q-20 0 -20 20v9q0 8 5.5 14
t14.5 6zM212 933q14 19 37 19t37 -19l121 -152q5 -6 5 -14q0 -18 -20 -18h-13q-11 0 -15 6l-113 145l-2 2l-111 -147q-4 -6 -14 -6h-13q-20 0 -20 18q0 6 5 14z" />
    <glyph glyph-name="Edieresis" unicode="&#xcb;" horiz-adv-x="500" 
d="M102 700h349q8 0 14 -6t6 -14v-9q0 -9 -6 -14.5t-14 -5.5h-339v-602h339q8 0 14 -5.5t6 -14.5v-9q0 -8 -6 -14t-14 -6h-350q-24 0 -31.5 10.5t-7.5 29.5v621q0 20 9 29.5t31 9.5zM172 388h214q9 0 14.5 -6t5.5 -14v-9q0 -20 -20 -20h-214q-20 0 -20 20v9q0 8 5.5 14
t14.5 6zM291 859q9 8 41.5 8t42.5 -8.5t10 -36.5v-12q0 -30 -10 -38.5t-42.5 -8.5t-41.5 8.5t-9 38.5v12q0 29 9 37zM125 859q9 8 41.5 8t42.5 -8.5t10 -36.5v-12q0 -30 -10 -38.5t-42.5 -8.5t-41.5 8t-9 39v12q0 29 9 37zM183 832q-4 3 -16 3t-15.5 -2.5t-3.5 -12.5v-10
q0 -10 3.5 -12.5t16 -2.5t16 2.5t3.5 12.5v10q0 9 -4 12zM349 832q-4 3 -16 3t-15.5 -2.5t-3.5 -12.5v-10q0 -10 3.5 -12.5t16 -2.5t16 2.5t3.5 12.5v10q0 9 -4 12z" />
    <glyph glyph-name="Igrave" unicode="&#xcc;" horiz-adv-x="200" 
d="M94 700h9q8 0 14 -6t6 -14v-660q0 -8 -6 -14t-14 -6h-9q-9 0 -14.5 6t-5.5 14v660q0 8 5.5 14t14.5 6zM35 912q0 20 27 20q14 0 18.5 -4.5t11.5 -13.5l107 -136q5 -6 5 -11.5t-5 -13t-20.5 -7.5t-29.5 17l-107 133q-7 8 -7 16z" />
    <glyph glyph-name="Iacute" unicode="&#xcd;" horiz-adv-x="200" 
d="M94 700h9q8 0 14 -6t6 -14v-660q0 -8 -6 -14t-14 -6h-9q-9 0 -14.5 6t-5.5 14v660q0 8 5.5 14t14.5 6zM159 932q26 0 26 -23q0 -5 -7 -13l-107 -133q-14 -17 -29.5 -17t-20.5 7.5t-5 13t5 11.5l107 136q4 4 5 6t3.5 4.5t3.5 3t4 2.5t5 1.5t5 0t5 0.5z" />
    <glyph glyph-name="Icircumflex" unicode="&#xce;" horiz-adv-x="200" 
d="M94 700h9q8 0 14 -6t6 -14v-660q0 -8 -6 -14t-14 -6h-9q-9 0 -14.5 6t-5.5 14v660q0 8 5.5 14t14.5 6zM62 933q14 19 37 19t37 -19l121 -152q5 -6 5 -14q0 -18 -20 -18h-13q-11 0 -15 6l-113 145l-2 2l-111 -147q-4 -6 -14 -6h-13q-20 0 -20 18q0 6 5 14z" />
    <glyph glyph-name="Idieresis" unicode="&#xcf;" horiz-adv-x="200" 
d="M94 700h9q8 0 14 -6t6 -14v-660q0 -8 -6 -14t-14 -6h-9q-9 0 -14.5 6t-5.5 14v660q0 8 5.5 14t14.5 6zM141 859q9 8 41.5 8t42.5 -8.5t10 -36.5v-12q0 -30 -10 -38.5t-42.5 -8.5t-41.5 8.5t-9 38.5v12q0 29 9 37zM-25 859q9 8 41.5 8t42.5 -8.5t10 -36.5v-12
q0 -30 -10 -38.5t-42.5 -8.5t-41.5 8t-9 39v12q0 29 9 37zM33 832q-4 3 -16 3t-15.5 -2.5t-3.5 -12.5v-10q0 -10 3.5 -12.5t16 -2.5t16 2.5t3.5 12.5v10q0 9 -4 12zM199 832q-4 3 -16 3t-15.5 -2.5t-3.5 -12.5v-10q0 -10 3.5 -12.5t16 -2.5t16 2.5t3.5 12.5v10q0 9 -4 12z
" />
    <glyph glyph-name="Eth" unicode="&#xd0;" horiz-adv-x="576" 
d="M81 700h162q148 0 197 -72q25 -36 34 -79.5t9 -109.5v-192q0 -128 -53.5 -187.5t-180.5 -59.5h-167q-40 0 -40 41v619q0 22 8.5 31t30.5 9zM243 651h-151v-602h157q95 0 140 45t45 147v201q0 110 -40 159.5t-151 49.5zM-41 374h249q20 0 20 -19v-10q0 -19 -20 -19h-249
q-20 0 -20 19v10q0 19 20 19z" />
    <glyph glyph-name="Ntilde" unicode="&#xd1;" 
d="M89 702q27 0 42 -24q193 -320 355 -609v611q0 8 5.5 14t14.5 6h10q9 0 14.5 -6t5.5 -14v-643q0 -20 -11.5 -29.5t-32.5 -9.5t-35 22l-355 609v-609q0 -8 -6 -14t-14 -6h-11q-8 0 -13.5 6t-5.5 14v641q0 41 37 41zM435 888h24q13 0 13 -17q0 -56 -24 -84.5t-68 -28.5
q-24 0 -45 12t-45.5 33.5t-38.5 30.5t-33 9t-34 -16.5t-15 -52.5q0 -16 -15 -16h-15q-13 0 -13 20q0 52 25.5 80t69.5 28q36 0 81 -36q5 -4 18.5 -15t18.5 -15q22 -18 39 -18q48 0 48 68v6q0 12 9 12z" />
    <glyph glyph-name="Ograve" unicode="&#xd2;" horiz-adv-x="606" 
d="M238 696q27 4 55.5 4t56.5 -4.5t63.5 -20.5t61.5 -41.5t44 -72t18 -107.5v-203q0 -63 -18.5 -111t-45 -74t-61.5 -42q-56 -25 -118 -25q-65 0 -110.5 22t-71.5 48t-44 73.5t-18 108.5v203q0 63 18.5 110t44.5 72t62 40.5t63 19.5zM337.5 647.5q-21.5 3.5 -44 3.5
t-44.5 -3.5t-50.5 -16t-49.5 -33t-35.5 -59t-14.5 -89.5v-196q0 -51 14.5 -90t36 -60.5t49.5 -34.5t50.5 -17t44.5 -4t44.5 4t50.5 17t49 34.5t35.5 60.5t14.5 90v196q0 51 -15 89.5t-36 59t-49.5 33t-50 16zM238 912q0 20 27 20q14 0 18.5 -4.5t11.5 -13.5l107 -136
q5 -6 5 -11.5t-5 -13t-20.5 -7.5t-29.5 17l-107 133q-7 8 -7 16z" />
    <glyph glyph-name="Oacute" unicode="&#xd3;" horiz-adv-x="606" 
d="M238 696q27 4 55.5 4t56.5 -4.5t63.5 -20.5t61.5 -41.5t44 -72t18 -107.5v-203q0 -63 -18.5 -111t-45 -74t-61.5 -42q-56 -25 -118 -25q-65 0 -110.5 22t-71.5 48t-44 73.5t-18 108.5v203q0 63 18.5 110t44.5 72t62 40.5t63 19.5zM337.5 647.5q-21.5 3.5 -44 3.5
t-44.5 -3.5t-50.5 -16t-49.5 -33t-35.5 -59t-14.5 -89.5v-196q0 -51 14.5 -90t36 -60.5t49.5 -34.5t50.5 -17t44.5 -4t44.5 4t50.5 17t49 34.5t35.5 60.5t14.5 90v196q0 51 -15 89.5t-36 59t-49.5 33t-50 16zM362 932q26 0 26 -23q0 -5 -7 -13l-107 -133q-14 -17 -29.5 -17
t-20.5 7.5t-5 13t5 11.5l107 136q4 4 5 6t3.5 4.5t3.5 3t4 2.5t5 1.5t5 0t5 0.5z" />
    <glyph glyph-name="Ocircumflex" unicode="&#xd4;" horiz-adv-x="606" 
d="M238 696q27 4 55.5 4t56.5 -4.5t63.5 -20.5t61.5 -41.5t44 -72t18 -107.5v-203q0 -63 -18.5 -111t-45 -74t-61.5 -42q-56 -25 -118 -25q-65 0 -110.5 22t-71.5 48t-44 73.5t-18 108.5v203q0 63 18.5 110t44.5 72t62 40.5t63 19.5zM337.5 647.5q-21.5 3.5 -44 3.5
t-44.5 -3.5t-50.5 -16t-49.5 -33t-35.5 -59t-14.5 -89.5v-196q0 -51 14.5 -90t36 -60.5t49.5 -34.5t50.5 -17t44.5 -4t44.5 4t50.5 17t49 34.5t35.5 60.5t14.5 90v196q0 51 -15 89.5t-36 59t-49.5 33t-50 16zM265 933q14 19 37 19t37 -19l121 -152q5 -6 5 -14q0 -18 -20 -18
h-13q-11 0 -15 6l-113 145l-2 2l-111 -147q-4 -6 -14 -6h-13q-20 0 -20 18q0 6 5 14z" />
    <glyph glyph-name="Otilde" unicode="&#xd5;" horiz-adv-x="606" 
d="M238 696q27 4 55.5 4t56.5 -4.5t63.5 -20.5t61.5 -41.5t44 -72t18 -107.5v-203q0 -63 -18.5 -111t-45 -74t-61.5 -42q-56 -25 -118 -25q-65 0 -110.5 22t-71.5 48t-44 73.5t-18 108.5v203q0 63 18.5 110t44.5 72t62 40.5t63 19.5zM337.5 647.5q-21.5 3.5 -44 3.5
t-44.5 -3.5t-50.5 -16t-49.5 -33t-35.5 -59t-14.5 -89.5v-196q0 -51 14.5 -90t36 -60.5t49.5 -34.5t50.5 -17t44.5 -4t44.5 4t50.5 17t49 34.5t35.5 60.5t14.5 90v196q0 51 -15 89.5t-36 59t-49.5 33t-50 16zM438 888h24q13 0 13 -17q0 -56 -24 -84.5t-68 -28.5
q-24 0 -45 12t-45.5 33.5t-38.5 30.5t-33 9t-34 -16.5t-15 -52.5q0 -16 -15 -16h-15q-13 0 -13 20q0 52 25.5 80t69.5 28q36 0 81 -36q5 -4 18.5 -15t18.5 -15q22 -18 39 -18q48 0 48 68v6q0 12 9 12z" />
    <glyph glyph-name="Odieresis" unicode="&#xd6;" horiz-adv-x="606" 
d="M238 696q27 4 55.5 4t56.5 -4.5t63.5 -20.5t61.5 -41.5t44 -72t18 -107.5v-203q0 -63 -18.5 -111t-45 -74t-61.5 -42q-56 -25 -118 -25q-65 0 -110.5 22t-71.5 48t-44 73.5t-18 108.5v203q0 63 18.5 110t44.5 72t62 40.5t63 19.5zM337.5 647.5q-21.5 3.5 -44 3.5
t-44.5 -3.5t-50.5 -16t-49.5 -33t-35.5 -59t-14.5 -89.5v-196q0 -51 14.5 -90t36 -60.5t49.5 -34.5t50.5 -17t44.5 -4t44.5 4t50.5 17t49 34.5t35.5 60.5t14.5 90v196q0 51 -15 89.5t-36 59t-49.5 33t-50 16zM344 859q9 8 41.5 8t42.5 -8.5t10 -36.5v-12q0 -30 -10 -38.5
t-42.5 -8.5t-41.5 8.5t-9 38.5v12q0 29 9 37zM178 859q9 8 41.5 8t42.5 -8.5t10 -36.5v-12q0 -30 -10 -38.5t-42.5 -8.5t-41.5 8t-9 39v12q0 29 9 37zM236 832q-4 3 -16 3t-15.5 -2.5t-3.5 -12.5v-10q0 -10 3.5 -12.5t16 -2.5t16 2.5t3.5 12.5v10q0 9 -4 12zM402 832
q-4 3 -16 3t-15.5 -2.5t-3.5 -12.5v-10q0 -10 3.5 -12.5t16 -2.5t16 2.5t3.5 12.5v10q0 9 -4 12z" />
    <glyph glyph-name="multiply" unicode="&#xd7;" horiz-adv-x="421" 
d="M345.5 524q6.5 0 16.5 -10t10 -17t-6 -14l-121 -121l121 -121q6 -7 6 -15q0 -7 -13 -20q-7 -5 -13.5 -5t-13.5 6l-121 121l-121 -121q-8 -7 -15 -7t-16.5 10.5t-9.5 17t7 13.5l121 121l-122 122q-6 7 -6 14t12 19q7 6 15 6l13 -5l122 -122l121 121q7 7 13.5 7z" />
    <glyph glyph-name="Oslash" unicode="&#xd8;" horiz-adv-x="606" 
d="M238 696q27 4 55.5 4t56.5 -4.5t63.5 -20.5t61.5 -41.5t44 -72t18 -107.5v-203q0 -63 -18.5 -111t-45 -74t-61.5 -42q-56 -25 -118 -25q-65 0 -110.5 22t-71.5 48t-44 73.5t-18 108.5v203q0 63 18.5 110t44.5 72t62 40.5t63 19.5zM337.5 647.5q-21.5 3.5 -44 3.5
t-44.5 -3.5t-50.5 -16t-49.5 -33t-35.5 -59t-14.5 -89.5v-196q0 -51 14.5 -90t36 -60.5t49.5 -34.5t50.5 -17t44.5 -4t44.5 4t50.5 17t49 34.5t35.5 60.5t14.5 90v196q0 51 -15 89.5t-36 59t-49.5 33t-50 16zM421 699q17 0 17 -17q0 -4 -2 -9l-261 -660q-8 -13 -15 -13h-12
q-11 0 -16 6.5t-5 11t2 8.5l260 660q7 13 19 13h13z" />
    <glyph glyph-name="Ugrave" unicode="&#xd9;" horiz-adv-x="562" 
d="M480 700h10q8 0 14 -6t6 -14v-429q0 -72 -24 -124.5t-62 -78.5q-70 -49 -143 -49h-12q-73 0 -145 49q-38 26 -61.5 78.5t-23.5 124.5v429q0 8 5.5 14t14.5 6h10q9 0 14.5 -6t5.5 -14v-429q0 -59 19 -101.5t50 -63.5q54 -36 113 -38h9q57 2 112 39q30 20 49 62.5t19 101.5
v429q0 8 5.5 14t14.5 6zM203 912q0 20 27 20q14 0 18.5 -4.5t11.5 -13.5l107 -136q5 -6 5 -11.5t-5 -13t-20.5 -7.5t-29.5 17l-107 133q-7 8 -7 16z" />
    <glyph glyph-name="Uacute" unicode="&#xda;" horiz-adv-x="562" 
d="M480 700h10q8 0 14 -6t6 -14v-429q0 -72 -24 -124.5t-62 -78.5q-70 -49 -143 -49h-12q-73 0 -145 49q-38 26 -61.5 78.5t-23.5 124.5v429q0 8 5.5 14t14.5 6h10q9 0 14.5 -6t5.5 -14v-429q0 -59 19 -101.5t50 -63.5q54 -36 113 -38h9q57 2 112 39q30 20 49 62.5t19 101.5
v429q0 8 5.5 14t14.5 6zM327 932q26 0 26 -23q0 -5 -7 -13l-107 -133q-14 -17 -29.5 -17t-20.5 7.5t-5 13t5 11.5l107 136q4 4 5 6t3.5 4.5t3.5 3t4 2.5t5 1.5t5 0t5 0.5z" />
    <glyph glyph-name="Ucircumflex" unicode="&#xdb;" horiz-adv-x="562" 
d="M480 700h10q8 0 14 -6t6 -14v-429q0 -72 -24 -124.5t-62 -78.5q-70 -49 -143 -49h-12q-73 0 -145 49q-38 26 -61.5 78.5t-23.5 124.5v429q0 8 5.5 14t14.5 6h10q9 0 14.5 -6t5.5 -14v-429q0 -59 19 -101.5t50 -63.5q54 -36 113 -38h9q57 2 112 39q30 20 49 62.5t19 101.5
v429q0 8 5.5 14t14.5 6zM230 933q14 19 37 19t37 -19l121 -152q5 -6 5 -14q0 -18 -20 -18h-13q-11 0 -15 6l-113 145l-2 2l-111 -147q-4 -6 -14 -6h-13q-20 0 -20 18q0 6 5 14z" />
    <glyph glyph-name="Udieresis" unicode="&#xdc;" horiz-adv-x="562" 
d="M480 700h10q8 0 14 -6t6 -14v-429q0 -72 -24 -124.5t-62 -78.5q-70 -49 -143 -49h-12q-73 0 -145 49q-38 26 -61.5 78.5t-23.5 124.5v429q0 8 5.5 14t14.5 6h10q9 0 14.5 -6t5.5 -14v-429q0 -59 19 -101.5t50 -63.5q54 -36 113 -38h9q57 2 112 39q30 20 49 62.5t19 101.5
v429q0 8 5.5 14t14.5 6zM309 859q9 8 41.5 8t42.5 -8.5t10 -36.5v-12q0 -30 -10 -38.5t-42.5 -8.5t-41.5 8.5t-9 38.5v12q0 29 9 37zM143 859q9 8 41.5 8t42.5 -8.5t10 -36.5v-12q0 -30 -10 -38.5t-42.5 -8.5t-41.5 8t-9 39v12q0 29 9 37zM201 832q-4 3 -16 3t-15.5 -2.5
t-3.5 -12.5v-10q0 -10 3.5 -12.5t16 -2.5t16 2.5t3.5 12.5v10q0 9 -4 12zM367 832q-4 3 -16 3t-15.5 -2.5t-3.5 -12.5v-10q0 -10 3.5 -12.5t16 -2.5t16 2.5t3.5 12.5v10q0 9 -4 12z" />
    <glyph glyph-name="Yacute" unicode="&#xdd;" horiz-adv-x="436" 
d="M391 700h11q12 0 16 -7.5t4 -12.5t-3 -10v1l-169 -308q-8 -12 -11 -15v-328q0 -8 -6 -14t-14 -6h-10q-8 0 -14 6t-6 14v329q-5 5 -9 12l-182 309q-3 5 -3 10t4 12.5t16 7.5h12q10 0 17 -9l170 -292l161 295q4 6 16 6zM277 932q26 0 26 -23q0 -5 -7 -13l-107 -133
q-14 -17 -29.5 -17t-20.5 7.5t-5 13t5 11.5l107 136q4 4 5 6t3.5 4.5t3.5 3t4 2.5t5 1.5t5 0t5 0.5z" />
    <glyph glyph-name="Thorn" unicode="&#xde;" horiz-adv-x="517" 
d="M176 590h85q71 0 131 -36q31 -19 50.5 -57t19.5 -90q0 -84 -50 -136.5t-143 -52.5h-89q-9 0 -14.5 6t-5.5 14v9q0 20 20 20h80q152 0 152 136q0 71 -46.5 104.5t-106.5 33.5h-83q-9 0 -14.5 6t-5.5 14v9q0 20 20 20zM95 732h10q8 0 14 -6t6 -14v-692q0 -8 -6 -14t-14 -6
h-10q-8 0 -14 6t-6 14v692q0 8 6 14t14 6z" />
    <glyph glyph-name="germandbls" unicode="&#xdf;" horiz-adv-x="516" 
d="M344 598q0 -53 -45 -118q-38 -53 -41 -63t-3 -16q0 -43 62 -69q55 -18 106 -56q53 -39 53 -116.5t-49 -118.5t-144 -41h-89q-9 0 -14.5 6t-5.5 14v9q0 20 20 20h80q71 0 111.5 26t40.5 78q0 59 -40 89q-30 23 -87 44q-7 3 -11 4q-44 17 -64.5 42.5t-20.5 63.5q0 24 12 44
t25 38q50 75 50 118t-27.5 64.5t-67.5 21.5t-62.5 -24.5t-22.5 -61.5v-582q0 -8 -6 -14t-14 -6h-10q-8 0 -14 6t-6 14l2 546v47q0 65 42 95t95 30t99 -31t46 -103z" />
    <glyph glyph-name="agrave" unicode="&#xe0;" horiz-adv-x="504" 
d="M121 459q48 43 125 43t124 -43.5t47 -121.5v-220q0 -39 6.5 -53.5t25.5 -19.5l11 -3q15 -3 15 -13v-11q0 -17 -20 -17q-49 0 -67 29t-18 89v219q0 57 -35 87.5t-89 30.5t-90 -30.5t-36 -87.5v-171q0 -59 29.5 -89t85 -30t91.5 45q7 9 19.5 9t17.5 -15q3 -12 -3 -21
q-43 -65 -123.5 -65t-122 43t-41.5 122v172q0 79 48 122zM187 712q0 20 27 20q14 0 18.5 -4.5t11.5 -13.5l107 -136q5 -6 5 -11.5t-5 -13t-20.5 -7.5t-29.5 17l-107 133q-7 8 -7 16z" />
    <glyph glyph-name="aacute" unicode="&#xe1;" horiz-adv-x="504" 
d="M121 459q48 43 125 43t124 -43.5t47 -121.5v-220q0 -39 6.5 -53.5t25.5 -19.5l11 -3q15 -3 15 -13v-11q0 -17 -20 -17q-49 0 -67 29t-18 89v219q0 57 -35 87.5t-89 30.5t-90 -30.5t-36 -87.5v-171q0 -59 29.5 -89t85 -30t91.5 45q7 9 19.5 9t17.5 -15q3 -12 -3 -21
q-43 -65 -123.5 -65t-122 43t-41.5 122v172q0 79 48 122zM311 732q26 0 26 -23q0 -5 -7 -13l-107 -133q-14 -17 -29.5 -17t-20.5 7.5t-5 13t5 11.5l107 136q4 4 5 6t3.5 4.5t3.5 3t4 2.5t5 1.5t5 0t5 0.5z" />
    <glyph glyph-name="acircumflex" unicode="&#xe2;" horiz-adv-x="504" 
d="M121 459q48 43 125 43t124 -43.5t47 -121.5v-220q0 -39 6.5 -53.5t25.5 -19.5l11 -3q15 -3 15 -13v-11q0 -17 -20 -17q-49 0 -67 29t-18 89v219q0 57 -35 87.5t-89 30.5t-90 -30.5t-36 -87.5v-171q0 -59 29.5 -89t85 -30t91.5 45q7 9 19.5 9t17.5 -15q3 -12 -3 -21
q-43 -65 -123.5 -65t-122 43t-41.5 122v172q0 79 48 122zM214 733q14 19 37 19t37 -19l121 -152q5 -6 5 -14q0 -18 -20 -18h-13q-11 0 -15 6l-113 145l-2 2l-111 -147q-4 -6 -14 -6h-13q-20 0 -20 18q0 6 5 14z" />
    <glyph glyph-name="atilde" unicode="&#xe3;" horiz-adv-x="504" 
d="M121 459q48 43 125 43t124 -43.5t47 -121.5v-220q0 -39 6.5 -53.5t25.5 -19.5l11 -3q15 -3 15 -13v-11q0 -17 -20 -17q-49 0 -67 29t-18 89v219q0 57 -35 87.5t-89 30.5t-90 -30.5t-36 -87.5v-171q0 -59 29.5 -89t85 -30t91.5 45q7 9 19.5 9t17.5 -15q3 -12 -3 -21
q-43 -65 -123.5 -65t-122 43t-41.5 122v172q0 79 48 122zM387 688h24q13 0 13 -17q0 -56 -24 -84.5t-68 -28.5q-24 0 -45 12t-45.5 33.5t-38.5 30.5t-33 9t-34 -16.5t-15 -52.5q0 -16 -15 -16h-15q-13 0 -13 20q0 52 25.5 80t69.5 28q36 0 81 -36q5 -4 18.5 -15t18.5 -15
q22 -18 39 -18q48 0 48 68v6q0 12 9 12z" />
    <glyph glyph-name="adieresis" unicode="&#xe4;" horiz-adv-x="504" 
d="M121 459q48 43 125 43t124 -43.5t47 -121.5v-220q0 -39 6.5 -53.5t25.5 -19.5l11 -3q15 -3 15 -13v-11q0 -17 -20 -17q-49 0 -67 29t-18 89v219q0 57 -35 87.5t-89 30.5t-90 -30.5t-36 -87.5v-171q0 -59 29.5 -89t85 -30t91.5 45q7 9 19.5 9t17.5 -15q3 -12 -3 -21
q-43 -65 -123.5 -65t-122 43t-41.5 122v172q0 79 48 122zM293 659q9 8 41.5 8t42.5 -8.5t10 -36.5v-12q0 -30 -10 -38.5t-42.5 -8.5t-41.5 8.5t-9 38.5v12q0 29 9 37zM127 659q9 8 41.5 8t42.5 -8.5t10 -36.5v-12q0 -30 -10 -38.5t-42.5 -8.5t-41.5 8t-9 39v12q0 29 9 37z
M185 632q-4 3 -16 3t-15.5 -2.5t-3.5 -12.5v-10q0 -10 3.5 -12.5t16 -2.5t16 2.5t3.5 12.5v10q0 9 -4 12zM351 632q-4 3 -16 3t-15.5 -2.5t-3.5 -12.5v-10q0 -10 3.5 -12.5t16 -2.5t16 2.5t3.5 12.5v10q0 9 -4 12z" />
    <glyph glyph-name="aring" unicode="&#xe5;" horiz-adv-x="504" 
d="M121 459q48 43 125 43t124 -43.5t47 -121.5v-220q0 -39 6.5 -53.5t25.5 -19.5l11 -3q15 -3 15 -13v-11q0 -17 -20 -17q-49 0 -67 29t-18 89v219q0 57 -35 87.5t-89 30.5t-90 -30.5t-36 -87.5v-171q0 -59 29.5 -89t85 -30t91.5 45q7 9 19.5 9t17.5 -15q3 -12 -3 -21
q-43 -65 -123.5 -65t-122 43t-41.5 122v172q0 79 48 122zM180 711q26 22 71.5 22t70 -22t24.5 -63v-62q0 -41 -24.5 -63t-70 -22t-71.5 22t-26 63v62q0 41 26 63zM289 677q-15 13 -38 13t-39 -12.5t-16 -36.5v-48q0 -24 16 -36.5t39 -12.5t38 13t15 36v48q0 23 -15 36z" />
    <glyph glyph-name="ae" unicode="&#xe6;" horiz-adv-x="761" 
d="M234 502q103 0 146 -73q46 73 151 73q76 0 123 -43.5t47 -121.5v-60q0 -43 -41 -43h-216q-9 0 -14.5 6t-5.5 14v8q0 8 5.5 14t14.5 6h210v54q0 57 -35 87.5t-89 30.5t-89.5 -30.5t-35.5 -87.5v-172q0 -57 35.5 -87.5t89 -30.5t89 29.5t35.5 84.5q0 8 5.5 14t13.5 6h8
q9 0 14.5 -6t5.5 -14q-1 -77 -48 -119.5t-123 -42.5t-124.5 43.5t-48.5 121.5v174q0 57 -35 87.5t-89 30.5t-90 -30.5t-36 -87.5v-171q0 -59 29.5 -89t85 -30t91.5 45q7 9 19.5 9t17.5 -15q3 -12 -3 -21q-43 -65 -123.5 -65t-122 43t-41.5 122v172q0 79 48 122t126 43z" />
    <glyph glyph-name="ccedilla" unicode="&#xe7;" horiz-adv-x="505" 
d="M118 459q48 43 125 43t124 -43.5t47 -121.5q0 -19 -20 -19h-8q-19 0 -19 19q0 57 -35 87t-89 30t-89.5 -30.5t-35.5 -87.5v-172q0 -57 35.5 -87.5t89.5 -30.5t88.5 29.5t35.5 84.5q0 8 5.5 14t13.5 6h8q9 0 14.5 -6t5.5 -14q-2 -76 -49 -119t-122.5 -43t-124 43.5
t-48.5 121.5v174q0 79 48 122zM337 -142v-42q0 -40 -27.5 -62.5t-60 -22.5t-58 10.5t-37.5 24.5l23 38q11 -15 30.5 -22.5t38 -7.5t34 12.5t15.5 36.5v28q0 23 -16 36t-44 13t-37 -3v1l38 113l42 -1l-24 -67q38 -3 60.5 -25t22.5 -60z" />
    <glyph glyph-name="egrave" unicode="&#xe8;" horiz-adv-x="490" 
d="M118 459q48 43 125 43t124 -43.5t47 -121.5v-60q0 -43 -41 -43h-216q-9 0 -14.5 6t-5.5 14v8q0 8 5.5 14t14.5 6h210v54q0 57 -35 87.5t-89 30.5t-89.5 -30.5t-35.5 -87.5v-172q0 -57 35.5 -87.5t89 -30.5t89 29.5t35.5 84.5q0 8 5.5 14t13.5 6h8q9 0 14.5 -6t5.5 -14
q-1 -77 -48 -119.5t-123 -42.5t-124.5 43.5t-48.5 121.5v174q0 79 48 122zM180 712q0 20 27 20q14 0 18.5 -4.5t11.5 -13.5l107 -136q5 -6 5 -11.5t-5 -13t-20.5 -7.5t-29.5 17l-107 133q-7 8 -7 16z" />
    <glyph glyph-name="eacute" unicode="&#xe9;" horiz-adv-x="490" 
d="M118 459q48 43 125 43t124 -43.5t47 -121.5v-60q0 -43 -41 -43h-216q-9 0 -14.5 6t-5.5 14v8q0 8 5.5 14t14.5 6h210v54q0 57 -35 87.5t-89 30.5t-89.5 -30.5t-35.5 -87.5v-172q0 -57 35.5 -87.5t89 -30.5t89 29.5t35.5 84.5q0 8 5.5 14t13.5 6h8q9 0 14.5 -6t5.5 -14
q-1 -77 -48 -119.5t-123 -42.5t-124.5 43.5t-48.5 121.5v174q0 79 48 122zM304 732q26 0 26 -23q0 -5 -7 -13l-107 -133q-14 -17 -29.5 -17t-20.5 7.5t-5 13t5 11.5l107 136q4 4 5 6t3.5 4.5t3.5 3t4 2.5t5 1.5t5 0t5 0.5z" />
    <glyph glyph-name="ecircumflex" unicode="&#xea;" horiz-adv-x="490" 
d="M118 459q48 43 125 43t124 -43.5t47 -121.5v-60q0 -43 -41 -43h-216q-9 0 -14.5 6t-5.5 14v8q0 8 5.5 14t14.5 6h210v54q0 57 -35 87.5t-89 30.5t-89.5 -30.5t-35.5 -87.5v-172q0 -57 35.5 -87.5t89 -30.5t89 29.5t35.5 84.5q0 8 5.5 14t13.5 6h8q9 0 14.5 -6t5.5 -14
q-1 -77 -48 -119.5t-123 -42.5t-124.5 43.5t-48.5 121.5v174q0 79 48 122zM207 733q14 19 37 19t37 -19l121 -152q5 -6 5 -14q0 -18 -20 -18h-13q-11 0 -15 6l-113 145l-2 2l-111 -147q-4 -6 -14 -6h-13q-20 0 -20 18q0 6 5 14z" />
    <glyph glyph-name="edieresis" unicode="&#xeb;" horiz-adv-x="490" 
d="M118 459q48 43 125 43t124 -43.5t47 -121.5v-60q0 -43 -41 -43h-216q-9 0 -14.5 6t-5.5 14v8q0 8 5.5 14t14.5 6h210v54q0 57 -35 87.5t-89 30.5t-89.5 -30.5t-35.5 -87.5v-172q0 -57 35.5 -87.5t89 -30.5t89 29.5t35.5 84.5q0 8 5.5 14t13.5 6h8q9 0 14.5 -6t5.5 -14
q-1 -77 -48 -119.5t-123 -42.5t-124.5 43.5t-48.5 121.5v174q0 79 48 122zM286 659q9 8 41.5 8t42.5 -8.5t10 -36.5v-12q0 -30 -10 -38.5t-42.5 -8.5t-41.5 8.5t-9 38.5v12q0 29 9 37zM120 659q9 8 41.5 8t42.5 -8.5t10 -36.5v-12q0 -30 -10 -38.5t-42.5 -8.5t-41.5 8t-9 39
v12q0 29 9 37zM178 632q-4 3 -16 3t-15.5 -2.5t-3.5 -12.5v-10q0 -10 3.5 -12.5t16 -2.5t16 2.5t3.5 12.5v10q0 9 -4 12zM344 632q-4 3 -16 3t-15.5 -2.5t-3.5 -12.5v-10q0 -10 3.5 -12.5t16 -2.5t16 2.5t3.5 12.5v10q0 9 -4 12z" />
    <glyph glyph-name="igrave" unicode="&#xec;" horiz-adv-x="168" 
d="M80 501h8q8 0 14 -5.5t6 -14.5v-461q0 -9 -6 -14.5t-14 -5.5h-8q-8 0 -14 5.5t-6 14.5v461q0 9 6 14.5t14 5.5zM18 712q0 20 27 20q14 0 18.5 -4.5t11.5 -13.5l107 -136q5 -6 5 -11.5t-5 -13t-20.5 -7.5t-29.5 17l-107 133q-7 8 -7 16z" />
    <glyph glyph-name="iacute" unicode="&#xed;" horiz-adv-x="168" 
d="M80 501h8q8 0 14 -5.5t6 -14.5v-461q0 -9 -6 -14.5t-14 -5.5h-8q-8 0 -14 5.5t-6 14.5v461q0 9 6 14.5t14 5.5zM142 732q26 0 26 -23q0 -5 -7 -13l-107 -133q-14 -17 -29.5 -17t-20.5 7.5t-5 13t5 11.5l107 136q4 4 5 6t3.5 4.5t3.5 3t4 2.5t5 1.5t5 0t5 0.5z" />
    <glyph glyph-name="icircumflex" unicode="&#xee;" horiz-adv-x="168" 
d="M80 501h8q8 0 14 -5.5t6 -14.5v-461q0 -9 -6 -14.5t-14 -5.5h-8q-8 0 -14 5.5t-6 14.5v461q0 9 6 14.5t14 5.5zM45 733q14 19 37 19t37 -19l121 -152q5 -6 5 -14q0 -18 -20 -18h-13q-11 0 -15 6l-113 145l-2 2l-111 -147q-4 -6 -14 -6h-13q-20 0 -20 18q0 6 5 14z" />
    <glyph glyph-name="idieresis" unicode="&#xef;" horiz-adv-x="168" 
d="M80 501h8q8 0 14 -5.5t6 -14.5v-461q0 -9 -6 -14.5t-14 -5.5h-8q-8 0 -14 5.5t-6 14.5v461q0 9 6 14.5t14 5.5zM124 659q9 8 41.5 8t42.5 -8.5t10 -36.5v-12q0 -30 -10 -38.5t-42.5 -8.5t-41.5 8.5t-9 38.5v12q0 29 9 37zM-42 659q9 8 41.5 8t42.5 -8.5t10 -36.5v-12
q0 -30 -10 -38.5t-42.5 -8.5t-41.5 8t-9 39v12q0 29 9 37zM16 632q-4 3 -16 3t-15.5 -2.5t-3.5 -12.5v-10q0 -10 3.5 -12.5t16 -2.5t16 2.5t3.5 12.5v10q0 9 -4 12zM182 632q-4 3 -16 3t-15.5 -2.5t-3.5 -12.5v-10q0 -10 3.5 -12.5t16 -2.5t16 2.5t3.5 12.5v10q0 9 -4 12z
" />
    <glyph glyph-name="eth" unicode="&#xf0;" 
d="M408 732h12q18 0 18 -19v-550q0 -78 -47.5 -121.5t-124.5 -43.5t-125 43t-48 122v174q0 77 48 120t125 43q32 0 68.5 -12t55.5 -27v252q0 19 18 19zM390 406q-58 46 -118 46t-95.5 -30t-35.5 -87v-171q0 -58 35.5 -88t89.5 -30t89 30.5t35 87.5v242z" />
    <glyph glyph-name="ntilde" unicode="&#xf1;" horiz-adv-x="479" 
d="M248 502q75 0 115 -39.5t40 -115.5v-327q0 -20 -19 -20h-8q-20 0 -20 20v316q0 119 -109 119q-57 0 -97 -45q-11 -9 -19 -9q-18 0 -19 20q0 8 4 16q21 29 56 47t76 18zM79 499h8q8 0 14 -5.5t6 -14.5v-459q0 -9 -6 -14.5t-14 -5.5h-8q-8 0 -14 5.5t-6 14.5v459
q0 9 6 14.5t14 5.5zM375 688h24q13 0 13 -17q0 -56 -24 -84.5t-68 -28.5q-24 0 -45 12t-45.5 33.5t-38.5 30.5t-33 9t-34 -16.5t-15 -52.5q0 -16 -15 -16h-15q-13 0 -13 20q0 52 25.5 80t69.5 28q36 0 81 -36q5 -4 18.5 -15t18.5 -15q22 -18 39 -18q48 0 48 68v6q0 12 9 12z
" />
    <glyph glyph-name="ograve" unicode="&#xf2;" horiz-adv-x="504" 
d="M118 459q48 43 125 43t124 -43.5t47 -121.5v-174q0 -78 -47 -121.5t-123.5 -43.5t-125 43.5t-48.5 121.5v174q0 79 48 122zM332 424.5q-35 30.5 -89 30.5t-90 -30.5t-36 -87.5v-174q0 -57 36 -87.5t90 -30.5t89 30.5t35 87.5v174q0 57 -35 87.5zM187 712q0 20 27 20
q14 0 18.5 -4.5t11.5 -13.5l107 -136q5 -6 5 -11.5t-5 -13t-20.5 -7.5t-29.5 17l-107 133q-7 8 -7 16z" />
    <glyph glyph-name="oacute" unicode="&#xf3;" horiz-adv-x="504" 
d="M118 459q48 43 125 43t124 -43.5t47 -121.5v-174q0 -78 -47 -121.5t-123.5 -43.5t-125 43.5t-48.5 121.5v174q0 79 48 122zM332 424.5q-35 30.5 -89 30.5t-90 -30.5t-36 -87.5v-174q0 -57 36 -87.5t90 -30.5t89 30.5t35 87.5v174q0 57 -35 87.5zM311 732q26 0 26 -23
q0 -5 -7 -13l-107 -133q-14 -17 -29.5 -17t-20.5 7.5t-5 13t5 11.5l107 136q4 4 5 6t3.5 4.5t3.5 3t4 2.5t5 1.5t5 0t5 0.5z" />
    <glyph glyph-name="ocircumflex" unicode="&#xf4;" horiz-adv-x="504" 
d="M118 459q48 43 125 43t124 -43.5t47 -121.5v-174q0 -78 -47 -121.5t-123.5 -43.5t-125 43.5t-48.5 121.5v174q0 79 48 122zM332 424.5q-35 30.5 -89 30.5t-90 -30.5t-36 -87.5v-174q0 -57 36 -87.5t90 -30.5t89 30.5t35 87.5v174q0 57 -35 87.5zM214 733q14 19 37 19
t37 -19l121 -152q5 -6 5 -14q0 -18 -20 -18h-13q-11 0 -15 6l-113 145l-2 2l-111 -147q-4 -6 -14 -6h-13q-20 0 -20 18q0 6 5 14z" />
    <glyph glyph-name="otilde" unicode="&#xf5;" horiz-adv-x="504" 
d="M118 459q48 43 125 43t124 -43.5t47 -121.5v-174q0 -78 -47 -121.5t-123.5 -43.5t-125 43.5t-48.5 121.5v174q0 79 48 122zM332 424.5q-35 30.5 -89 30.5t-90 -30.5t-36 -87.5v-174q0 -57 36 -87.5t90 -30.5t89 30.5t35 87.5v174q0 57 -35 87.5zM387 688h24q13 0 13 -17
q0 -56 -24 -84.5t-68 -28.5q-24 0 -45 12t-45.5 33.5t-38.5 30.5t-33 9t-34 -16.5t-15 -52.5q0 -16 -15 -16h-15q-13 0 -13 20q0 52 25.5 80t69.5 28q36 0 81 -36q5 -4 18.5 -15t18.5 -15q22 -18 39 -18q48 0 48 68v6q0 12 9 12z" />
    <glyph glyph-name="odieresis" unicode="&#xf6;" horiz-adv-x="504" 
d="M118 459q48 43 125 43t124 -43.5t47 -121.5v-174q0 -78 -47 -121.5t-123.5 -43.5t-125 43.5t-48.5 121.5v174q0 79 48 122zM332 424.5q-35 30.5 -89 30.5t-90 -30.5t-36 -87.5v-174q0 -57 36 -87.5t90 -30.5t89 30.5t35 87.5v174q0 57 -35 87.5zM293 659q9 8 41.5 8
t42.5 -8.5t10 -36.5v-12q0 -30 -10 -38.5t-42.5 -8.5t-41.5 8.5t-9 38.5v12q0 29 9 37zM127 659q9 8 41.5 8t42.5 -8.5t10 -36.5v-12q0 -30 -10 -38.5t-42.5 -8.5t-41.5 8t-9 39v12q0 29 9 37zM185 632q-4 3 -16 3t-15.5 -2.5t-3.5 -12.5v-10q0 -10 3.5 -12.5t16 -2.5
t16 2.5t3.5 12.5v10q0 9 -4 12zM351 632q-4 3 -16 3t-15.5 -2.5t-3.5 -12.5v-10q0 -10 3.5 -12.5t16 -2.5t16 2.5t3.5 12.5v10q0 9 -4 12z" />
    <glyph glyph-name="divide" unicode="&#xf7;" horiz-adv-x="539" 
d="M75 317h390q19 0 19 -19v-9q0 -8 -5.5 -14t-13.5 -6h-390q-9 0 -14.5 6t-5.5 14v9q0 19 20 19zM263 502q36 0 47 -9.5t11 -39.5v-13q0 -34 -11 -43t-47 -9t-46 9t-10 43v13q0 32 10 40.5t46 8.5zM263 172q36 0 47 -9.5t11 -39.5v-13q0 -34 -11 -43t-47 -9t-46 9t-10 43
v13q0 32 10 40.5t46 8.5zM281.5 133.5q-4.5 3.5 -18 3.5t-17.5 -3t-4 -14v-10q0 -11 4 -14t18 -3t18 3t4 14v10q0 10 -4.5 13.5zM281.5 463.5q-4.5 3.5 -18 3.5t-17.5 -3t-4 -14v-10q0 -11 4 -14t18 -3t18 3t4 14v10q0 10 -4.5 13.5z" />
    <glyph glyph-name="oslash" unicode="&#xf8;" horiz-adv-x="483" 
d="M392 500h13q11 0 14.5 -6t3.5 -10.5t-3 -9.5l-311 -461q-8 -13 -15 -13h-12q-12 0 -17 6.5t-5 11t3 8.5l310 461q7 13 19 13zM120 459q48 43 125 43t124 -43.5t47 -121.5v-174q0 -78 -47 -121.5t-123.5 -43.5t-125 43.5t-48.5 121.5v174q0 79 48 122zM334 424.5
q-35 30.5 -89 30.5t-90 -30.5t-36 -87.5v-174q0 -57 36 -87.5t90 -30.5t89 30.5t35 87.5v174q0 57 -35 87.5z" />
    <glyph glyph-name="ugrave" unicode="&#xf9;" horiz-adv-x="498" 
d="M90 502h8q20 0 20 -20v-316q0 -59 29.5 -89t83.5 -30t93 43q9 11 19 11q19 0 19 -22q0 -9 -5 -16q-20 -28 -56 -45.5t-76 -17.5q-69 0 -111.5 43.5t-42.5 121.5v317q0 20 19 20zM386 500h10q19 0 19 -20v-363q0 -39 6.5 -53.5t25.5 -19.5l11 -3q15 -3 15 -13v-11
q0 -17 -20 -17q-49 0 -67.5 29t-18.5 89v362q0 20 19 20zM174 712q0 20 27 20q14 0 18.5 -4.5t11.5 -13.5l107 -136q5 -6 5 -11.5t-5 -13t-20.5 -7.5t-29.5 17l-107 133q-7 8 -7 16z" />
    <glyph glyph-name="uacute" unicode="&#xfa;" horiz-adv-x="498" 
d="M90 502h8q20 0 20 -20v-316q0 -59 29.5 -89t83.5 -30t93 43q9 11 19 11q19 0 19 -22q0 -9 -5 -16q-20 -28 -56 -45.5t-76 -17.5q-69 0 -111.5 43.5t-42.5 121.5v317q0 20 19 20zM386 500h10q19 0 19 -20v-363q0 -39 6.5 -53.5t25.5 -19.5l11 -3q15 -3 15 -13v-11
q0 -17 -20 -17q-49 0 -67.5 29t-18.5 89v362q0 20 19 20zM298 732q26 0 26 -23q0 -5 -7 -13l-107 -133q-14 -17 -29.5 -17t-20.5 7.5t-5 13t5 11.5l107 136q4 4 5 6t3.5 4.5t3.5 3t4 2.5t5 1.5t5 0t5 0.5z" />
    <glyph glyph-name="ucircumflex" unicode="&#xfb;" horiz-adv-x="498" 
d="M90 502h8q20 0 20 -20v-316q0 -59 29.5 -89t83.5 -30t93 43q9 11 19 11q19 0 19 -22q0 -9 -5 -16q-20 -28 -56 -45.5t-76 -17.5q-69 0 -111.5 43.5t-42.5 121.5v317q0 20 19 20zM386 500h10q19 0 19 -20v-363q0 -39 6.5 -53.5t25.5 -19.5l11 -3q15 -3 15 -13v-11
q0 -17 -20 -17q-49 0 -67.5 29t-18.5 89v362q0 20 19 20zM201 733q14 19 37 19t37 -19l121 -152q5 -6 5 -14q0 -18 -20 -18h-13q-11 0 -15 6l-113 145l-2 2l-111 -147q-4 -6 -14 -6h-13q-20 0 -20 18q0 6 5 14z" />
    <glyph glyph-name="udieresis" unicode="&#xfc;" horiz-adv-x="498" 
d="M90 502h8q20 0 20 -20v-316q0 -59 29.5 -89t83.5 -30t93 43q9 11 19 11q19 0 19 -22q0 -9 -5 -16q-20 -28 -56 -45.5t-76 -17.5q-69 0 -111.5 43.5t-42.5 121.5v317q0 20 19 20zM386 500h10q19 0 19 -20v-363q0 -39 6.5 -53.5t25.5 -19.5l11 -3q15 -3 15 -13v-11
q0 -17 -20 -17q-49 0 -67.5 29t-18.5 89v362q0 20 19 20zM280 659q9 8 41.5 8t42.5 -8.5t10 -36.5v-12q0 -30 -10 -38.5t-42.5 -8.5t-41.5 8.5t-9 38.5v12q0 29 9 37zM114 659q9 8 41.5 8t42.5 -8.5t10 -36.5v-12q0 -30 -10 -38.5t-42.5 -8.5t-41.5 8t-9 39v12q0 29 9 37z
M172 632q-4 3 -16 3t-15.5 -2.5t-3.5 -12.5v-10q0 -10 3.5 -12.5t16 -2.5t16 2.5t3.5 12.5v10q0 9 -4 12zM338 632q-4 3 -16 3t-15.5 -2.5t-3.5 -12.5v-10q0 -10 3.5 -12.5t16 -2.5t16 2.5t3.5 12.5v10q0 9 -4 12z" />
    <glyph glyph-name="yacute" unicode="&#xfd;" horiz-adv-x="508" 
d="M383 500h9q19 0 19 -20v-534q0 -86 -45.5 -131t-123.5 -45t-120.5 41.5t-44.5 118.5q0 19 19 19h9q19 0 19 -19q2 -55 35.5 -84t85.5 -29q119 0 119 128v535q0 20 19 20zM87 502h8q20 0 20 -20v-316q0 -59 29.5 -89t83.5 -30t93 43q9 11 19 11q19 0 19 -22q0 -9 -5 -16
q-20 -28 -56 -45.5t-76 -17.5q-69 0 -111.5 43.5t-42.5 121.5v317q0 20 19 20zM313 732q26 0 26 -23q0 -5 -7 -13l-107 -133q-14 -17 -29.5 -17t-20.5 7.5t-5 13t5 11.5l107 136q4 4 5 6t3.5 4.5t3.5 3t4 2.5t5 1.5t5 0t5 0.5z" />
    <glyph glyph-name="thorn" unicode="&#xfe;" 
d="M80 730h8q19 0 19 -19l-1 -252q46 43 123 43t125 -43t48 -122v-174q0 -77 -48 -121t-118.5 -44t-112.5 25v52q48 -29 104.5 -29t92 31t35.5 88v171q0 58 -35.5 88t-88 30t-87.5 -27.5t-39 -79.5v-578q0 -19 -19 -19h-9q-19 0 -19 19v582l2 360q2 19 20 19z" />
    <glyph glyph-name="ydieresis" unicode="&#xff;" horiz-adv-x="508" 
d="M383 500h9q19 0 19 -20v-534q0 -86 -45.5 -131t-123.5 -45t-120.5 41.5t-44.5 118.5q0 19 19 19h9q19 0 19 -19q2 -55 35.5 -84t85.5 -29q119 0 119 128v535q0 20 19 20zM87 502h8q20 0 20 -20v-316q0 -59 29.5 -89t83.5 -30t93 43q9 11 19 11q19 0 19 -22q0 -9 -5 -16
q-20 -28 -56 -45.5t-76 -17.5q-69 0 -111.5 43.5t-42.5 121.5v317q0 20 19 20zM295 659q9 8 41.5 8t42.5 -8.5t10 -36.5v-12q0 -30 -10 -38.5t-42.5 -8.5t-41.5 8.5t-9 38.5v12q0 29 9 37zM129 659q9 8 41.5 8t42.5 -8.5t10 -36.5v-12q0 -30 -10 -38.5t-42.5 -8.5t-41.5 8
t-9 39v12q0 29 9 37zM187 632q-4 3 -16 3t-15.5 -2.5t-3.5 -12.5v-10q0 -10 3.5 -12.5t16 -2.5t16 2.5t3.5 12.5v10q0 9 -4 12zM353 632q-4 3 -16 3t-15.5 -2.5t-3.5 -12.5v-10q0 -10 3.5 -12.5t16 -2.5t16 2.5t3.5 12.5v10q0 9 -4 12z" />
    <glyph glyph-name="dotlessi" unicode="&#x131;" horiz-adv-x="168" 
d="M80 501h8q8 0 14 -5.5t6 -14.5v-461q0 -9 -6 -14.5t-14 -5.5h-8q-8 0 -14 5.5t-6 14.5v461q0 9 6 14.5t14 5.5z" />
    <glyph glyph-name="Lslash" unicode="&#x141;" 
d="M101 700h10q8 0 14 -6t6 -14v-631h334q19 0 19 -20v-9q0 -8 -5.5 -14t-13.5 -6h-343q-41 0 -41 43v637q0 8 6 14t14 6zM273 501q13 0 18 -15q2 -4 2 -10q0 -12 -14 -16l-98 -48q-20 -4 -23 13l-2 3q-5 17 12 25l97 47q4 1 8 1zM43 394q13 0 18 -15q2 -4 2 -10
q0 -12 -14 -16l-58 -34q-4 -1 -7 -1q-14 0 -16 14q-3 5 -3 13t13 15l57 33q4 1 8 1z" />
    <glyph glyph-name="lslash" unicode="&#x142;" horiz-adv-x="313" 
d="M130 730h8q19 0 19 -19v-245l80 34q8 3 15 0q14 -7 14 -22t-12 -19l-97 -41v-264q0 -107 91 -107h16q8 0 13.5 -6t5.5 -13v-8q0 -20 -36 -20q-68 0 -103 39t-34 114v558q0 19 20 19zM54 423q5 2 12 2t12.5 -11.5t5.5 -16.5q0 -9 -12 -14l-29 -12q-6 -2 -14 -2
q-10 0 -15 15q-2 5 -2 13t13 14z" />
    <glyph glyph-name="OE" unicode="&#x152;" horiz-adv-x="1106" 
d="M527 700h349q8 0 14 -6t6 -14v-9q0 -9 -6 -14.5t-14 -5.5h-339v-602h339q8 0 14 -5.5t6 -14.5v-9q0 -8 -6 -14t-14 -6h-350q-24 0 -31.5 10.5t-7.5 29.5v621q0 20 9 29.5t31 9.5zM597 388h214q9 0 14.5 -6t5.5 -14v-9q0 -20 -20 -20h-214q-20 0 -20 20v9q0 8 5.5 14
t14.5 6zM238 696q27 4 55.5 4t56.5 -4.5t63.5 -20.5t61.5 -41.5t44 -72t18 -107.5v-203q0 -63 -18.5 -111t-45 -74t-61.5 -42q-56 -25 -118 -25q-65 0 -110.5 22t-71.5 48t-44 73.5t-18 108.5v203q0 63 18.5 110t44.5 72t62 40.5t63 19.5zM337.5 647.5q-21.5 3.5 -44 3.5
t-44.5 -3.5t-50.5 -16t-49.5 -33t-35.5 -59t-14.5 -89.5v-196q0 -51 14.5 -90t36 -60.5t49.5 -34.5t50.5 -17t44.5 -4t44.5 4t50.5 17t49 34.5t35.5 60.5t14.5 90v196q0 51 -15 89.5t-36 59t-49.5 33t-50 16z" />
    <glyph glyph-name="oe" unicode="&#x153;" horiz-adv-x="762" 
d="M406 459q48 43 125 43t124 -43.5t47 -121.5v-60q0 -43 -41 -43h-216q-9 0 -14.5 6t-5.5 14v8q0 8 5.5 14t14.5 6h210v54q0 57 -35 87.5t-89 30.5t-89.5 -30.5t-35.5 -87.5v-172q0 -57 35.5 -87.5t89 -30.5t89 29.5t35.5 84.5q0 8 5.5 14t13.5 6h8q9 0 14.5 -6t5.5 -14
q-1 -77 -48 -119.5t-123 -42.5t-124.5 43.5t-48.5 121.5v174q0 79 48 122zM108 459q48 43 125 43t124 -43.5t47 -121.5v-174q0 -78 -47 -121.5t-123.5 -43.5t-125 43.5t-48.5 121.5v174q0 79 48 122zM322 424.5q-35 30.5 -89 30.5t-90 -30.5t-36 -87.5v-174q0 -57 36 -87.5
t90 -30.5t89 30.5t35 87.5v174q0 57 -35 87.5z" />
    <glyph glyph-name="Scaron" unicode="&#x160;" horiz-adv-x="557" 
d="M138 654q53 48 144.5 48t154 -48.5t66.5 -144.5q0 -8 -6 -14.5t-14 -6.5h-10q-7 0 -13 5.5t-7 13.5q-3 76 -51 110.5t-115 34.5q-72 0 -112 -33t-40 -81.5t28 -77.5q39 -39 145 -80q126 -50 168 -100q32 -38 32 -109t-57.5 -121.5t-163.5 -50.5q-79 0 -149 43
q-37 23 -60.5 64.5t-25.5 95.5q0 21 20 21h9q18 0 20 -19q2 -44 22 -76.5t50 -48.5q58 -31 127.5 -31t114 36.5t44.5 91.5q0 56 -36 86q-29 24 -63 41q-44 21 -138 59q-72 32 -104.5 73.5t-32.5 106t53 112.5zM380.5 881.5q14.5 11.5 27.5 11.5t18 -12q2 -4 2 -9.5t-6 -10.5
l-107 -105q-1 -1 -5 -4.5t-6 -5.5t-6 -4q-7 -5 -19 -5h-2q-16 0 -21.5 5.5t-9.5 9t-5 4.5l-107 105q-6 5 -6 10.5t2 9.5q5 12 18 12t27.5 -11.5t100.5 -89.5l2 -2l2 2q86 78 100.5 89.5z" />
    <glyph glyph-name="scaron" unicode="&#x161;" horiz-adv-x="455" 
d="M113.5 464q38.5 38 115 38t117.5 -37.5t41 -110.5q0 -8 -5.5 -13.5t-13.5 -5.5h-9q-8 0 -13.5 5.5t-5.5 12.5q0 101 -113 101q-52 0 -78.5 -25t-26.5 -63t25.5 -60.5t96.5 -36.5t111 -44t40 -89.5t-43.5 -99t-121 -39.5t-125.5 39.5t-48 116.5q0 21 20 21h8q19 0 19 -20
q0 -109 129 -109q58 0 86.5 26.5t28.5 65.5t-30 56.5t-104.5 33.5t-106.5 51t-32 91.5t38.5 94.5zM329.5 681.5q14.5 11.5 27.5 11.5t18 -12q2 -4 2 -9.5t-6 -10.5l-107 -105q-1 -1 -5 -4.5t-6 -5.5t-6 -4q-7 -5 -19 -5h-2q-16 0 -21.5 5.5t-9.5 9t-5 4.5l-107 105
q-6 5 -6 10.5t2 9.5q5 12 18 12t27.5 -11.5t100.5 -89.5l2 -2l2 2q86 78 100.5 89.5z" />
    <glyph glyph-name="Ydieresis" unicode="&#x178;" horiz-adv-x="436" 
d="M391 700h11q12 0 16 -7.5t4 -12.5t-3 -10v1l-169 -308q-8 -12 -11 -15v-328q0 -8 -6 -14t-14 -6h-10q-8 0 -14 6t-6 14v329q-5 5 -9 12l-182 309q-3 5 -3 10t4 12.5t16 7.5h12q10 0 17 -9l170 -292l161 295q4 6 16 6zM259 859q9 8 41.5 8t42.5 -8.5t10 -36.5v-12
q0 -30 -10 -38.5t-42.5 -8.5t-41.5 8.5t-9 38.5v12q0 29 9 37zM93 859q9 8 41.5 8t42.5 -8.5t10 -36.5v-12q0 -30 -10 -38.5t-42.5 -8.5t-41.5 8t-9 39v12q0 29 9 37zM151 832q-4 3 -16 3t-15.5 -2.5t-3.5 -12.5v-10q0 -10 3.5 -12.5t16 -2.5t16 2.5t3.5 12.5v10q0 9 -4 12z
M317 832q-4 3 -16 3t-15.5 -2.5t-3.5 -12.5v-10q0 -10 3.5 -12.5t16 -2.5t16 2.5t3.5 12.5v10q0 9 -4 12z" />
    <glyph glyph-name="Zcaron" unicode="&#x17d;" horiz-adv-x="552" 
d="M43 37q0 13 16 37v1l364 576h-372q-8 0 -14 5.5t-6 14.5v9q0 8 6 14t14 6h390q42 0 42 -35q0 -18 -14 -36v1l-3 -3l1 -2l-366 -576h393q8 0 14 -5.5t6 -14.5v-9q0 -8 -6 -14t-14 -6h-411q-40 0 -40 37zM377.5 881.5q14.5 11.5 27.5 11.5t18 -12q2 -4 2 -9.5t-6 -10.5
l-107 -105q-1 -1 -5 -4.5t-6 -5.5t-6 -4q-7 -5 -19 -5h-2q-16 0 -21.5 5.5t-9.5 9t-5 4.5l-107 105q-6 5 -6 10.5t2 9.5q5 12 18 12t27.5 -11.5t100.5 -89.5l2 -2l2 2q86 78 100.5 89.5z" />
    <glyph glyph-name="zcaron" unicode="&#x17e;" horiz-adv-x="456" 
d="M74 500h265q40 0 40 -35q0 -15 -17 -38l-252 -380h255q19 0 19 -19v-8q0 -20 -19 -20h-274q-17 0 -27 10t-10 25t17 39l249 379h-246q-19 0 -19 19v8q0 20 19 20zM329.5 681.5q14.5 11.5 27.5 11.5t18 -12q2 -4 2 -9.5t-6 -10.5l-107 -105q-1 -1 -5 -4.5t-6 -5.5t-6 -4
q-7 -5 -19 -5h-2q-16 0 -21.5 5.5t-9.5 9t-5 4.5l-107 105q-6 5 -6 10.5t2 9.5q5 12 18 12t27.5 -11.5t100.5 -89.5l2 -2l2 2q86 78 100.5 89.5z" />
    <glyph glyph-name="florin" unicode="&#x192;" horiz-adv-x="423" 
d="M63 379h58q3 0 5 -1l11 144q7 86 38 131q33 48 116 48q24 0 56.5 -5.5t36.5 -9.5t4 -16v-23q0 -11 -13 -7q-39 13 -84.5 13t-71 -31.5t-31.5 -114.5l-45 -680q-1 -18 -31 -18q-14 0 -21.5 3.5t-6.5 14.5l38 504h-59q-13 0 -13 19v9q0 20 13 20zM212 379h133q12 0 12 -20
v-9q0 -19 -12 -19h-133q-12 0 -12 19v9q0 20 12 20z" />
    <glyph glyph-name="circumflex" unicode="&#x2c6;" horiz-adv-x="441" 
d="M181 733q14 19 37 19t37 -19l121 -152q5 -6 5 -14q0 -18 -20 -18h-13q-11 0 -15 6l-113 145l-2 2l-111 -147q-4 -6 -14 -6h-13q-20 0 -20 18q0 6 5 14z" />
    <glyph glyph-name="caron" unicode="&#x2c7;" 
d="M400.5 681.5q14.5 11.5 27.5 11.5t18 -12q2 -4 2 -9.5t-6 -10.5l-107 -105q-1 -1 -5 -4.5t-6 -5.5t-6 -4q-7 -5 -19 -5h-2q-16 0 -21.5 5.5t-9.5 9t-5 4.5l-107 105q-6 5 -6 10.5t2 9.5q5 12 18 12t27.5 -11.5t100.5 -89.5l2 -2l2 2q86 78 100.5 89.5z" />
    <glyph glyph-name="breve" unicode="&#x2d8;" 
d="M450 675q0 -57 -58 -95q-41 -27 -74 -27t-57.5 8.5t-58 43.5t-33.5 70q0 3 1 4l31 14q2 1 4.5 1t3.5 -4q11 -36 39 -57.5t62 -21.5t61.5 21.5t38.5 57.5q1 4 3.5 4t4.5 -1l31 -14q1 -1 1 -4z" />
    <glyph glyph-name="dotaccent" unicode="&#x2d9;" 
d="M240 663.5q10 8.5 45.5 8.5t46.5 -9.5t11 -39.5v-13q0 -34 -11 -43t-46.5 -9t-45.5 9t-10 43v13q0 32 10 40.5z" />
    <glyph glyph-name="ring" unicode="&#x2da;" 
d="M211 711q26 22 71.5 22t70 -22t24.5 -63v-62q0 -41 -24.5 -63t-70 -22t-71.5 22t-26 63v62q0 41 26 63zM320 677q-15 13 -38 13t-39 -12.5t-16 -36.5v-48q0 -24 16 -36.5t39 -12.5t38 13t15 36v48q0 23 -15 36z" />
    <glyph glyph-name="ogonek" unicode="&#x2db;" horiz-adv-x="372" 
d="M206 -126q25 0 49 10q3 0 3 -18.5t-2 -19.5q-20 -10 -51 -10q-56 0 -81 24t-25 54.5t15.5 56.5t30 39.5t30.5 25.5t22 12t13.5 -7.5t2.5 -11.5q-66 -61 -66 -102q0 -53 59 -53z" />
    <glyph glyph-name="tilde" unicode="&#x2dc;" 
d="M415 688h24q13 0 13 -17q0 -56 -24 -84.5t-68 -28.5q-24 0 -45 12t-45.5 33.5t-38.5 30.5t-33 9t-34 -16.5t-15 -52.5q0 -16 -15 -16h-15q-13 0 -13 20q0 52 25.5 80t69.5 28q36 0 81 -36q5 -4 18.5 -15t18.5 -15q22 -18 39 -18q48 0 48 68v6q0 12 9 12z" />
    <glyph glyph-name="hungarumlaut" unicode="&#x2dd;" 
d="M407 762q18 0 18 -18q0 -9 -7 -17l-147 -161q-13 -13 -31 -13h-2q-13 0 -16.5 11.5t5.5 22.5l127 165q4 3 46 10h7zM95 553q-17 0 -17 18q0 8 6 16l127 165q4 3 46 10h7q18 0 18 -18q0 -9 -7 -17l-147 -161q-13 -13 -31 -13h-2z" />
    <glyph glyph-name="pi" unicode="&#x3c0;" 
d="M369 438h8q8 0 14 -5.5t6 -14.5v-301q0 -43 14 -58t40 -17t30 -4t4 -10v-11q0 -11 -8 -15q-5 -2 -22 -2q-59 0 -82 27t-23 91v300q0 20 19 20zM182 439h8q8 0 14 -5.5t6 -14.5v-399q0 -9 -6 -14.5t-14 -5.5h-8q-19 0 -19 20v399q0 20 19 20zM61 483q-14 0 -15 23.5
t17 23.5h449q20 0 20 -23.5t-18 -23.5h-2h-449h-2z" />
    <glyph glyph-name="endash" unicode="&#x2013;" horiz-adv-x="228" 
d="M39 386h149q8 0 14 -5.5t6 -12.5v-10q0 -8 -6 -13.5t-14 -5.5h-149q-19 0 -19 19v10q0 8 5.5 13t13.5 5z" />
    <glyph glyph-name="emdash" unicode="&#x2014;" horiz-adv-x="456" 
d="M53 386h343q8 0 13.5 -5t5.5 -13v-10q0 -19 -19 -19h-343q-19 0 -19 19v10q0 8 5.5 13t13.5 5z" />
    <glyph glyph-name="quoteleft" unicode="&#x2018;" horiz-adv-x="236" 
d="M154 732h26q12 -2 6 -14l-58 -130h34q29 0 29 -29v-93q0 -19 -5.5 -25.5t-21.5 -6.5h-102q-14 0 -23 13q-4 8 -4 16t7 26l100 229q5 14 12 14zM124 550q-10 0 -10 5l-30 -68q-2 -6 -2 -8q0 -5 8 -5h52q9 10 9 16v53q0 5 -2 6t-11 1h-14z" />
    <glyph glyph-name="quoteright" unicode="&#x2019;" horiz-adv-x="236" 
d="M72 732h102q14 0 23 -13q4 -8 4 -16t-7 -26l-100 -229q-5 -14 -12 -14h-26q-12 2 -6 14l57 130h-33q-29 0 -29 29v93q0 19 5.5 25.5t21.5 6.5zM112 616q8 0 10 -6l30 69q2 6 2 8q0 5 -8 5h-52q-7 0 -8 -2t-1 -8v-59q0 -5 2 -6t11 -1h14z" />
    <glyph glyph-name="quotesinglbase" unicode="&#x201a;" horiz-adv-x="66" 
d="M78 139h13q19 0 16 -19q-17 -76 -57 -243q-3 -13 -19 -13h-12q-20 0 -17 19l57 243q4 13 19 13z" />
    <glyph glyph-name="quotedblleft" unicode="&#x201c;" horiz-adv-x="0" 
d="M333 732h26q12 -2 6 -14l-58 -130h34q29 0 29 -29v-93q0 -19 -5.5 -25.5t-21.5 -6.5h-102q-14 0 -23 13q-4 8 -4 16t7 26l100 229q5 14 12 14zM303 550q-10 0 -10 5l-30 -68q-2 -6 -2 -8q0 -5 8 -5h52q9 10 9 16v53q0 5 -2 6t-11 1h-14zM154 732h26q12 -2 6 -14l-58 -130
h34q29 0 29 -29v-93q0 -19 -5.5 -25.5t-21.5 -6.5h-102q-14 0 -23 13q-4 8 -4 16t7 26l100 229q5 14 12 14zM124 550q-10 0 -10 5l-30 -68q-2 -6 -2 -8q0 -5 8 -5h52q9 10 9 16v53q0 5 -2 6t-11 1h-14z" />
    <glyph glyph-name="quotedblright" unicode="&#x201d;" horiz-adv-x="0" 
d="M244 732h102q14 0 23 -13q4 -8 4 -16t-7 -26l-100 -229q-5 -14 -12 -14h-26q-12 2 -6 14l57 130h-33q-29 0 -29 29v93q0 19 5.5 25.5t21.5 6.5zM284 616q8 0 10 -6l30 69q2 6 2 8q0 5 -8 5h-52q-7 0 -8 -2t-1 -8v-59q0 -5 2 -6t11 -1h14zM72 732h102q14 0 23 -13
q4 -8 4 -16t-7 -26l-100 -229q-5 -14 -12 -14h-26q-12 2 -6 14l57 130h-33q-29 0 -29 29v93q0 19 5.5 25.5t21.5 6.5zM112 616q8 0 10 -6l30 69q2 6 2 8q0 5 -8 5h-52q-7 0 -8 -2t-1 -8v-59q0 -5 2 -6t11 -1h14z" />
    <glyph glyph-name="quotedblbase" unicode="&#x201e;" horiz-adv-x="219" 
d="M178 139h13q19 0 16 -19q-17 -76 -57 -243q-3 -13 -19 -13h-12q-20 0 -17 19l57 243q4 13 19 13zM86 139h13q19 0 16 -19q-17 -76 -57 -243q-3 -13 -19 -13h-12q-20 0 -17 19l57 243q4 13 19 13z" />
    <glyph glyph-name="dagger" unicode="&#x2020;" horiz-adv-x="442" 
d="M80 472h116v209q0 19 19 19h12q19 0 19 -19v-209h117q8 0 13.5 -5t5.5 -13v-13q0 -19 -19 -19h-117v-524q0 -8 -5.5 -14t-13.5 -6h-12q-8 0 -13.5 6t-5.5 14v524h-116q-9 0 -15 5.5t-5 13.5v13q-1 7 5.5 12.5t14.5 5.5z" />
    <glyph glyph-name="daggerdbl" unicode="&#x2021;" horiz-adv-x="442" 
d="M80 472h116v209q0 19 19 19h12q19 0 19 -19v-209h117q8 0 13.5 -5t5.5 -13v-13q0 -19 -19 -19h-117v-199h117q8 0 13.5 -5t5.5 -13v-13q0 -19 -19 -19h-117v-275q0 -8 -5.5 -14t-13.5 -6h-12q-8 0 -13.5 6t-5.5 14v275h-116q-9 0 -15 5.5t-5 13.5v14q0 7 6 12t14 5h116
v199h-116q-9 0 -15 5.5t-5 13.5v14q0 7 6 12t14 5z" />
    <glyph glyph-name="bullet" unicode="&#x2022;" 
d="M309 430q59 0 100.5 -42t41.5 -100t-41.5 -100t-100.5 -42t-100.5 42t-41.5 100t41.5 100t100.5 42zM309 375q-37 0 -62 -25t-25 -62t25 -62t62 -25t62 25t25 62t-25 62t-62 25z" />
    <glyph glyph-name="ellipsis" unicode="&#x2026;" horiz-adv-x="528" 
d="M263 111q36 0 47 -9.5t11 -39.5v-13q0 -34 -11 -43t-47 -9t-46 9t-10 43v13q0 32 10 40.5t46 8.5zM281.5 72.5q-4.5 3.5 -18 3.5t-17.5 -3t-4 -14v-10q0 -11 4 -14t18 -3t18 3t4 14v10q0 10 -4.5 13.5zM430 111q36 0 47 -9.5t11 -39.5v-13q0 -34 -11 -43t-47 -9t-46 9
t-10 43v13q0 32 10 40.5t46 8.5zM448.5 72.5q-4.5 3.5 -18 3.5t-17.5 -3t-4 -14v-10q0 -11 4 -14t18 -3t18 3t4 14v10q0 10 -4.5 13.5zM96 111q36 0 47 -9.5t11 -39.5v-13q0 -34 -11 -43t-47 -9t-46 9t-10 43v13q0 32 10 40.5t46 8.5zM114.5 72.5q-4.5 3.5 -18 3.5t-17.5 -3
t-4 -14v-10q0 -11 4 -14t18 -3t18 3t4 14v10q0 10 -4.5 13.5z" />
    <glyph glyph-name="perthousand" unicode="&#x2030;" horiz-adv-x="837" 
d="M371 732h12q11 0 16 -6.5t3 -16.5l-131 -713q-3 -16 -19 -16h-10q-10 0 -15.5 6.5t-4.5 16.5l129 713q3 16 20 16zM355 208q0 103 101.5 103t101.5 -103v-105q0 -103 -101.5 -103t-101.5 103v105zM510 214q0 49 -53.5 49t-53.5 -49v-117q0 -49 53.5 -49t53.5 49v117z
M50 597q0 103 101.5 103t101.5 -103v-105q0 -103 -101.5 -103t-101.5 103v105zM205 603q0 49 -53.5 49t-53.5 -49v-117q0 -49 53.5 -49t53.5 49v117zM584 208q0 103 101.5 103t101.5 -103v-105q0 -103 -101.5 -103t-101.5 103v105zM739 214q0 49 -53.5 49t-53.5 -49v-117
q0 -49 53.5 -49t53.5 49v117z" />
    <glyph glyph-name="guilsinglleft" unicode="&#x2039;" horiz-adv-x="347" 
d="M309 530l12 3h3l2 -1h2q9 -4 11 -8l5 -10v-1q1 -2 1 -6v-3l-5 -10q-4 -4 -5 -4q0 -2 -2 -2l-225 -168l229 -171q0 -2 2 -2l6 -11l1 -6q0 -4 -0.5 -8t-4 -7l-3.5 -3q0 -3 -11 -6h-5q-12 0 -13 4l-230 173l-6 4l-6 7q0 1 -3.5 4.5t-3.5 9.5l-1 7v5q0 14 6 21t15 15z" />
    <glyph glyph-name="guilsinglright" unicode="&#x203a;" horiz-adv-x="347" 
d="M8 526q7 7 15 7t14 -3l229 -174q21 -16 21 -37t-20 -36l-230 -173q-5 -4 -17 -4t-16 10t-4 18.5t13 17.5l224 168l-224 168q-12 9 -12 20t7 18z" />
    <glyph glyph-name="fraction" unicode="&#x2044;" 
d="M8 0q-15 0 -15 15q0 6 4 11l568 699q10 13 21 13h3q11 0 15 -6.5t4 -11t-4 -8.5l-567 -699q-8 -13 -18 -13h-11z" />
    <glyph glyph-name="Euro" unicode="&#x20ac;" horiz-adv-x="656" 
d="M37 419h42v34q0 62 18 109t44 72t61 41q53 25 115 25q57 0 103 -20.5t72.5 -43t44 -60.5t17.5 -86q0 -21 -19 -21h-9q-7 0 -13.5 5.5t-6.5 12.5q0 47 -21 81.5t-53 51.5q-61 31 -115 31q-87 0 -141 -53q-20 -21 -34 -59.5t-14 -88.5v-31h277q9 0 14.5 -6t5.5 -14v-9
q0 -19 -20 -19h-277v-48h277q20 0 20 -19v-10q0 -19 -20 -19h-277v-26q0 -62 20.5 -105.5t53.5 -62.5q58 -34 115 -34q133 0 177 108q14 36 14 84q0 7 6 13t13 6h8q19 0 19 -19q0 -57 -17.5 -101.5t-44 -70t-60.5 -41.5q-56 -27 -115 -27q-61 0 -106 21.5t-71 47t-43.5 71.5
t-17.5 106v30h-42q-19 0 -19 19v10q0 19 19 19h42v48h-42q-19 0 -19 19v9q0 8 5.5 14t13.5 6z" />
    <glyph glyph-name="trademark" unicode="&#x2122;" horiz-adv-x="1150" 
d="M241 624h10q20 0 20 -19v-585q0 -8 -5.5 -14t-14.5 -6h-10q-9 0 -14.5 6t-5.5 14v585q0 19 20 19zM25 700h444q9 0 14.5 -6t5.5 -14v-11q0 -18 -20 -18h-444q-20 0 -20 18v11q0 8 6 14t14 6zM1038 703q16 0 28 -10.5t12 -32.5v-640q0 -8 -5.5 -14t-14.5 -6h-9
q-9 0 -14.5 6t-5.5 14v595l-174 -430q-11 -26 -36 -29q-29 0 -41 28l-184 435v-599q0 -8 -6 -14t-14 -6h-10q-8 0 -13.5 6t-5.5 14v640q0 43 39 43q27 0 40 -30l192 -453l182 453q14 30 40 30z" />
    <glyph glyph-name="product" unicode="&#x220f;" 
d="M24 732h583q8 0 13.5 -5t5.5 -13v-13q0 -19 -19 -19h-93v-754q0 -8 -5.5 -14t-13.5 -6h-12q-8 0 -13.5 6t-5.5 14v754h-310v-754q0 -8 -5.5 -14t-13.5 -6h-12q-8 0 -13.5 6t-5.5 14v754h-80q-9 0 -15 5.5t-5 13.5v13q-1 7 5.5 12.5t14.5 5.5z" />
    <glyph glyph-name="summation" unicode="&#x2211;" horiz-adv-x="500" 
d="M63 650q8 0 14 -6l301 -293q5 -7 5 -14t-6 -13l-300 -290q-6 -6 -14 -6t-17.5 9.5t-9.5 17.5t6 14l279 269l-279 271q-6 6 -6 14t9.5 17.5t17.5 9.5zM28 0h444q9 0 14.5 -6t5.5 -14v-11q0 -18 -20 -18h-444q-20 0 -20 18v11q0 8 6 14t14 6zM28 727h444q9 0 14.5 -6
t5.5 -14v-11q0 -18 -20 -18h-444q-20 0 -20 18v11q0 8 6 14t14 6z" />
    <glyph glyph-name="minus" unicode="&#x2212;" horiz-adv-x="459" 
d="M35 386h390q19 0 19 -19v-9q0 -8 -5.5 -14t-13.5 -6h-390q-9 0 -14.5 6t-5.5 14v9q0 19 20 19z" />
    <glyph glyph-name="radical" unicode="&#x221a;" 
d="M648 830q30 -9 30 -18q0 -6 -3 -13l-375 -880q-2 -5 -9 -5h-12q-9 0 -11 5l-153 362l-111 -63q-6 -4 -10 -2t-11 16t-7 16t2 4l159 93q10 6 13 -1l137 -323l344 796q6 14 12 14q2 0 5 -1z" />
    <glyph glyph-name="infinity" unicode="&#x221e;" horiz-adv-x="594" 
d="M416 500h35q53 0 85.5 -32.5t32.5 -89t-32.5 -90.5t-85.5 -34h-35q-38 0 -52.5 10.5t-19 13.5t-13.5 14t-11.5 14.5t-13.5 17.5l-13 18q-27 -43 -52 -65.5t-63 -22.5h-35q-53 0 -85.5 32.5t-32.5 89t32.5 90.5t85.5 34h35q28 0 50.5 -13t34 -27t32.5 -44q28 41 55.5 62.5
t65.5 21.5zM176 462h-31q-37 0 -58.5 -23t-21.5 -63.5t21 -62.5t59 -22h31q30 0 54 31q18 21 39 54q-2 3 -10 15.5t-11.5 17.5t-11.5 15.5t-13.5 15.5t-13.5 11q-15 11 -33 11zM449 463h-31q-42 0 -98 -80q6 -7 19 -27.5t21.5 -31.5t24.5 -21.5t33 -10.5h31q37 0 58.5 23
t21.5 63.5t-21 62.5t-59 22z" />
    <glyph glyph-name="integral" unicode="&#x222b;" horiz-adv-x="390" 
d="M60 80q36 0 47 -9.5t10 -39.5l-1 -13q0 -14 -3 -25h8q28 0 53.5 7.5t49 35.5t23.5 72t-18 94t-54 129q-68 149 -68 211q0 12 1 17q9 65 53 103.5t120 38.5q47 0 89 -13l4 -3q14 -8 14 -42v-13q-1 -34 -12.5 -43t-47.5 -9t-45 8.5t-9 37.5v6v13q0 8 2 20
q-113 -4 -126 -104q-1 -5 -1 -23.5t10.5 -53t18.5 -53.5q17 -38 29.5 -62.5t24.5 -51t15.5 -34.5t12.5 -30.5t12.5 -34t8.5 -30.5q8 -29 8 -52.5t-2 -43.5q-6 -60 -52 -97.5t-119 -37.5q-28 0 -59.5 6t-34.5 8q-12 4 -16 13.5t-4 20.5v15l1 13q1 32 11 40.5t46 8.5z
M77.5 41.5q-4.5 3.5 -18 3.5t-17.5 -3t-4 -14l-1 -10q0 -10 3 -14l16 -3h2q15 0 19 3t4 14l1 10q0 10 -4.5 13.5zM330 657q-13 0 -17 -3t-4 -14v-14q0 -8 4 -10.5t17.5 -2.5t17.5 3t5 14v10q0 10 -5 13l-14 4h-4z" />
    <glyph glyph-name="approxequal" unicode="&#x2248;" 
d="M453 508h24q13 0 13 -17q0 -55 -30 -84t-72 -29t-82 21.5t-76 42.5t-59 21t-42.5 -16t-19.5 -51q0 -18 -15 -18h-15q-13 0 -13 18q0 51 30 80.5t73.5 29.5t112 -42t96.5 -42q66 0 66 69q0 17 9 17zM453 338h24q13 0 13 -17q0 -55 -30 -84t-72 -29t-82 21.5t-76 42.5
t-59 21t-42.5 -16t-19.5 -51q0 -18 -15 -18h-15q-13 0 -13 18q0 51 30 80.5t73.5 29.5t112 -42t96.5 -42q66 0 66 69q0 17 9 17z" />
    <glyph glyph-name="notequal" unicode="&#x2260;" horiz-adv-x="579" 
d="M95 446h390q19 0 19 -19v-9q0 -20 -19 -20h-390q-20 0 -20 20v9q0 19 20 19zM95 322h390q19 0 19 -19v-9q0 -8 -5.5 -14t-13.5 -6h-390q-9 0 -14.5 6t-5.5 14v9q0 19 20 19zM423 699q17 0 17 -17q0 -4 -2 -9l-261 -660q-8 -13 -15 -13h-12q-11 0 -16 6.5t-5 11t2 8.5
l260 660q7 13 19 13h13z" />
    <glyph glyph-name="lessequal" unicode="&#x2264;" horiz-adv-x="572" 
d="M480 504q5 3 11 3t11 -3q14 -4 14 -22.5t-14 -23.5l-395 -138l397 -132q9 -3 12.5 -12.5t-0.5 -20.5q-7 -16 -17.5 -16t-18.5 3l-410 141q-20 8 -20 36.5t21 36.5zM76 70h426q20 0 20 -24t-20 -24h-426q-19 0 -19 24t19 24z" />
    <glyph glyph-name="greaterequal" unicode="&#x2265;" horiz-adv-x="572" 
d="M501 356q21 -8 21 -36.5t-20 -36.5l-410 -141q-8 -3 -18.5 -3t-17.5 16q-4 11 -0.5 20.5t12.5 12.5l397 132l-395 138q-14 5 -14 23.5t14 22.5q5 3 11 3t11 -3zM70 70h426q19 0 19 -24t-19 -24h-426q-20 0 -20 24t20 24z" />
    <glyph glyph-name="lozenge" unicode="&#x25ca;" horiz-adv-x="688" 
d="M325 526q11 11 23.5 11t27.5 -13l239 -239q11 -14 11 -26.5t-11 -24.5l-237 -245q-12 -12 -25 -12t-26 12l-242 242q-13 15 -13 27.5t11 23.5zM349 487l-228 -229l232 -231l225 232z" />
    <glyph glyph-name="two.dnom" horiz-adv-x="500" 
d="M321 331q0 68 -77 68q-63 0 -82 -60q-2 -7 -12 -7h-7q-15 0 -15 9q0 13 3 16q12 37 43.5 57.5t78 20.5t77.5 -29.5t31 -75.5q0 -62 -76 -159q-15 -19 -63 -76l-48 -57h179q13 0 13 -12v-14q0 -12 -13 -12h-207q-27 0 -27 23q0 11 36 53q84 98 100 120q66 85 66 135z" />
    <glyph glyph-name="four.dnom" 
d="M285 427q12 17 29.5 17t27 -8t9.5 -21v-228h61q5 0 8.5 -4.5t3.5 -9.5v-7q0 -17 -12 -17h-61v-137q0 -12 -12 -12h-14q-13 0 -13 12v137h-161q-26 0 -32 21q-1 4 -1 10t5 14zM312 187v216l-148 -216h148z" />
    <glyph glyph-name="one.numr" horiz-adv-x="383" 
d="M213 408v-394q0 -14 -12 -14h-17q-12 0 -12 13v387l-105 -83q-10 -8 -16 1l-7 9q-3 3 -3 7t6 9l109 90q14 12 30 12q27 -1 27 -37z" />
    <glyph glyph-name="three.numr" 
d="M207 706.5q31 25.5 80 25.5t79 -33t30 -83q0 -31 -16.5 -58.5t-49.5 -41.5q76 -23 76 -107q0 -60 -39 -90t-88 -30q-104 0 -124 96q-2 6 -2 9t6 3l24 1h3q1 0 3 -7q17 -66 90 -66q40 0 65.5 22t25.5 62t-25 64.5t-79 24.5h-37q-7 0 -7.5 1.5t-0.5 16.5q5 16 9 17h34
q48 0 72 23t24 60t-20 59t-62 22q-58 0 -68 -57q-1 -4 -5 -4h-31q-6 0 -3 11q5 34 36 59.5z" />
  </font>
</defs>
</svg>
