<?xml version="1.0" encoding="utf-8"?>
<svg xmlns="http://www.w3.org/2000/svg" id="master-artboard" viewBox="0 0 2579.051025390625 2548.938232421875" version="1.1" x="0px" y="0px" style="enable-background:new 0 0 649 485;" width="20px" height="20px">

<linearGradient id="SVGID_1_" gradientUnits="userSpaceOnUse" x1="-154.2538" y1="-245.5834" x2="608.0034" y2="516.6738" gradientTransform="matrix(1 0 0 -1 0 475.6816)">
		<stop offset="0" style="stop-color:#FFFFFF"/>
		<stop offset="5.717093e-02" style="stop-color:#FAFAFA"/>
		<stop offset="0.1214" style="stop-color:#EDEDED"/>
		<stop offset="0.1889" style="stop-color:#D6D6D6"/>
		<stop offset="0.2143" style="stop-color:#CCCCCC"/>
		<stop offset="0.2207" style="stop-color:#CFCFCF"/>
		<stop offset="0.2749" style="stop-color:#E4E4E4"/>
		<stop offset="0.3351" style="stop-color:#F3F3F3"/>
		<stop offset="0.4056" style="stop-color:#FCFCFC"/>
		<stop offset="0.511" style="stop-color:#FFFFFF"/>
		<stop offset="0.7198" style="stop-color:#E6E6E6"/>
		<stop offset="0.9396" style="stop-color:#FFFFFF"/>
	</linearGradient>



<g transform="matrix(5.616572380065918, 0, 0, 5.616572380065918, -534.6300048828125, -107.75253295898438)">
		<path class="st3" d="M 275.3 205.8 C 297 217.5 318.6 180.8 319.5 154.20000000000002 C 320.3 127.50000000000001 312.68870849609374 105.29323425292971 300.18870849609374 91.99323425292971 C 287.68870849609374 78.69323425292971 275.1144323297494 79.41147061596311 262.72279357910156 82.83634033203127 C 253.50197215074218 85.38483730925826 246.2 90.60000000000002 242.3 103.00000000000003 C 240.20000000000002 109.50000000000003 238.70000000000002 118.10000000000002 238.70000000000002 129.20000000000002 C 238.70000000000002 138.70000000000002 240.00000000000003 148.10000000000002 242.3 157.10000000000002 C 247.9 178.8 259.9 197.6 275.3 205.8 Z" style="fill: rgb(0, 0, 0);"/>
		<path class="st3" d="M 365.2 212.5 C 383.4 217.6 401.2 195.1 412 172.2 C 417 161.5 420.5 150.79999999999998 421.8 142.6 C 424.1 128.29999999999998 422.6631304049236 100.9667239559407 410.4681701660156 90.20451049804687 C 398.3210050013923 79.48448291594761 377.39649021165314 82.72863552198436 363.5430908203125 91.03409271240234 C 348.8703036674375 99.83079951156564 343.5 111 339.3 140.1 C 335.2 169.2 338.6 205 365.2 212.5 Z" style="fill: rgb(0, 0, 0);"/>
		<path class="st3" d="M439.4,202.5c0,0-16.2,11.6-27.3,28.4c-5.2,7.9-9.4,17-10.2,26.6c-1.6,19,1.5,34,10.2,42.4&#10;&#9;&#9;&#9;c5,4.9,11.8,7.5,20.7,7.5c24.2,0,55-35,55-67.5C487.7,207.5,470.2,182.5,439.4,202.5z" style="fill: rgb(0, 0, 0);"/>
		<path class="st3" d="M 242.2 270.4 C 246.1 262.79999999999995 246.79999999999998 251.79999999999998 244.39999999999998 235.79999999999998 C 243.89999999999998 232.39999999999998 243.09999999999997 229.2 242.2 225.99999999999997 C 233.79999999999998 198.29999999999998 208.82606995791323 175.64678709635385 190.38619689941405 175.43859558105464 C 165.17396494959456 175.15394931231822 155.29999999999998 216.59999999999997 165.29999999999998 241.59999999999997 C 175.29999999999998 266.59999999999997 194.49999999999997 289.09999999999997 217.79999999999998 284.9 C 229.9 282.8 238 278.6 242.2 270.4 Z" style="fill: rgb(0, 0, 0);"/>
		<path class="st3" d="M 412 333.5 C 395.7 299.6 367.7 267.7 355.2 256.6 C 340.2 243.3 307.8284030317388 245.23534992048906 287.3135314941406 254.8318298339844 C 267.0534557720469 264.30910235955344 267.79999999999995 277.8 242.19999999999996 309.1 C 232.49999999999997 321 223.89999999999995 333.8 218.59999999999997 346.6 C 202.19999999999996 386.6 206.90505976929924 393.51983786871045 222.28619689941402 405.76817016601564 C 233.85343065490707 414.97939155550864 267.6819732666015 401.93861083984376 271.0819732666015 401.2386108398438 C 295.28197326660154 396.2386108398438 314.29999999999995 377.40000000000003 354.29999999999995 393.3 C 377.09999999999997 402.3 404.66141967773433 405.42958984375 417.3614196777343 395.52958984375 C 426.8614196777343 388.12958984375 425.49999999999994 371.7 420.19999999999993 354.09999999999997 C 418.1 347.3 415.3 340.4 412 333.5 Z" style="fill: rgb(0, 0, 0);"/>
	<path d="M 255.83018493652344 110.83941650390625" style="fill: rgb(0, 0, 0); fill-opacity: 1; stroke: rgb(0, 0, 0); stroke-opacity: 1; stroke-width: 0; paint-order: fill;"/><path d="M 329.3580627441406 300.78643798828125" style="fill: rgb(0, 0, 0); fill-opacity: 1; stroke: rgb(0, 0, 0); stroke-opacity: 1; stroke-width: 0; paint-order: fill;"/></g></svg>
